<?xml version="1.0" encoding="UTF-8"?>
<!-- Created with Inkscape (http://www.inkscape.org/) -->
<svg width="147.22mm" height="148.08mm" version="1.1" viewBox="0 0 147.22 148.08" xmlns="http://www.w3.org/2000/svg" xmlns:cc="http://creativecommons.org/ns#" xmlns:dc="http://purl.org/dc/elements/1.1/" xmlns:rdf="http://www.w3.org/1999/02/22-rdf-syntax-ns#">
 <metadata>
  <rdf:RDF>
   <cc:Work rdf:about="">
    <dc:format>image/svg+xml</dc:format>
    <dc:type rdf:resource="http://purl.org/dc/dcmitype/StillImage"/>
    <dc:title/>
   </cc:Work>
  </rdf:RDF>
 </metadata>
 <g transform="translate(-28.993 -72.118)">
  <g transform="translate(-17.64 42.763)">
   <g transform="translate(1.8753 -4.286)" stroke-width=".26458">
    <path d="m113.68 181.67c-9.7798-0.70081-20.818-3.7781-28.849-8.0426-11.75-6.239-20.522-14.056-27.765-24.743-5.1363-7.5784-9.329-17.494-10.851-25.665-1.492-8.0072-1.453-7.5882-1.4559-15.647-2e-3 -5.7448 0.09936-8.2736 0.39786-9.9219 0.97411-5.3788 1.2699-6.8295 1.7725-8.6943 0.29415-1.0914 0.62849-2.3416 0.74297-2.7781 0.47521-1.8122 2.2445-6.4888 3.396-8.9765 4.087-8.8295 8.6179-15.367 15.179-21.901 5.8794-5.8548 11.5-10.012 18.328-13.558 2.4221-1.2577 2.7513-1.4018 7.4083-3.2438 4.5116-1.7845 12.762-4.0467 14.76-4.0468 0.46796-2.5e-5 1.784-0.17862 2.9246-0.39688 2.9044-0.55577 14.379-0.55577 17.284 0 1.1406 0.21826 2.4905 0.39736 2.9998 0.398 1.664 0.0021 10.213 2.2651 13.758 3.6419 6.8687 2.6675 11.559 5.1537 17.586 9.3216 4.4026 3.0444 11.861 10.29 15.252 14.817 7.8218 10.441 12.29 20.535 14.347 32.411 0.22687 1.3097 0.56431 3.3338 0.74988 4.4979 0.44135 2.7687 0.44131 13.806-5e-5 16.801-0.5438 3.6907-1.135 6.8819-1.6911 9.1281-0.28821 1.1642-0.61351 2.5334-0.7229 3.0427-0.19645 0.91469-1.1596 3.6876-2.5218 7.2604-3.3514 8.7903-9.889 18.477-17.243 25.548-10.02 9.6349-20.928 15.566-35.018 19.039-1.2658 0.31202-5.5007 1.0053-8.0698 1.3211-2.3215 0.28534-10.598 0.53749-12.7 0.38689zm-8.8724-14.837c0.65971-0.24194 1.5864-0.80108 2.0594-1.2425 0.81677-0.7624 0.85989-0.89853 0.85989-2.7148 0-1.6815-0.0844-2.0125-0.69975-2.7438-0.38486-0.45738-1.659-1.3053-2.8315-1.8843-2.5942-1.281-2.8188-1.4589-2.8188-2.233 0-1.2489 0.66198-1.5207 3.3595-1.3796l2.4613 0.12875v-1.1233c0-1.5836-0.67793-1.9805-3.3641-1.9694-3.7549 0.0155-6.1609 1.79-6.1609 4.544 0 1.1672 0.11421 1.4189 1.1245 2.4775 0.63526 0.66569 1.981 1.6086 3.0932 2.1674 2.1657 1.0881 2.5562 1.509 2.3099 2.4903-0.32954 1.313-2.8138 1.6975-4.7117 0.72931-1.4451-0.73723-1.8159-0.54384-1.8159 0.94705 0 1.1685 0.03836 1.2268 1.1245 1.7094 1.4584 0.64798 4.3796 0.69519 6.0104 0.0971zm30.998-0.0728c2.2917-1.0138 3.2547-2.9232 2.6349-5.2248-0.35528-1.3194-1.3036-2.2156-3.462-3.2717-2.8232-1.3814-3.4876-2.2927-2.3934-3.283 0.43504-0.39371 0.90712-0.45266 2.9766-0.37174l2.4595 0.0962 0.0803-0.96184c0.0653-0.78161-0.053-1.0667-0.631-1.5214-1.0914-0.85855-4.3978-0.79996-6.3257 0.11207-2.1659 1.0246-3.2336 3.1304-2.5282 4.9859 0.28615 0.75263 2.0647 2.8092 2.4294 2.8092 0.13165 0 1.0136 0.3775 1.9599 0.83889 1.7237 0.84044 2.1433 1.3862 1.9275 2.507-0.22692 1.1783-2.95 1.5246-4.7536 0.60442-0.5904-0.3012-1.2405-0.48353-1.4447-0.40518-0.39479 0.15149-0.51571 1.9051-0.16874 2.447 0.7371 1.1512 5.1923 1.5444 7.2392 0.63897zm-19.622-0.2637c0.16381-0.30608 0.27389-2.7406 0.27389-6.0571 0-6.2619-0.14947-5.8665 2.2177-5.8665 1.5506 0 2.0156-0.30998 2.0156-1.3434 0-1.2534-0.32329-1.319-6.1192-1.2418l-5.3901 0.0717v2.3812l1.7198 0.0755c1.2252 0.0538 1.8149 0.20151 2.0505 0.5136 0.23972 0.31751 0.33073 1.9386 0.33073 5.8908 0 3.8883 0.0911 5.5439 0.3175 5.7703 0.52773 0.52772 2.2672 0.39692 2.5836-0.19427zm9.667 0.24647c0.27358-0.44265 0.20641-14.318-0.0706-14.595-0.13907-0.13906-0.83501-0.21587-1.5465-0.17069l-1.2937 0.0822-0.0706 7.1398c-0.0388 3.9269-0.0128 7.2904 0.0578 7.4745 0.15473 0.40323 2.6802 0.46316 2.9236 0.0694zm49.148-75.163c2.8082-2.6627 3.7532-3.7985 3.3052-3.9728-0.0364-0.01416-1.3163-0.12153-2.8443-0.23862-1.528-0.11709-3.5886-0.36236-4.5792-0.54505-1.5891-0.29307-1.8511-0.28212-2.2262 0.09305-0.62792 0.62793-8e-3 1.2455 1.2511 1.2455 1.1884 0 1.6979 0.62295 2.1653 2.6478 0.30457 1.3195 0.29935 1.34-0.56805 2.2349-0.85922 0.88649-0.96484 1.7318-0.21637 1.7318 0.1876 0 1.8582-1.4385 3.7125-3.1967zm-1.7473-1.6246c-0.45992-1.0967-0.35702-1.2641 0.77701-1.2641 1.4502 0 1.4904 1.1124 0.0677 1.8738-0.39978 0.21395-0.54248 0.11094-0.84474-0.60976zm-107.2 3.2347c0-0.54083-0.15948-0.67998-0.92604-0.80802-0.50932-0.08507-1.278-0.34137-1.7081-0.56956-0.74706-0.39634-0.78255-0.49551-0.79375-2.2181-0.01144-1.7594-0.03423-1.8185-0.93777-2.433-1.0611-0.72166-2.4284-0.6652-3.2063 0.13241-0.54293 0.55671-1.5809 3.4073-1.4059 3.8609 0.15978 0.41398 2.186 1.2408 3.0407 1.2408 0.36955 0 0.78502 0.11223 0.92326 0.24941s0.78714 0.38293 1.442 0.54613 1.5478 0.39724 1.9844 0.52009c1.1994 0.33751 1.5875 0.21012 1.5875-0.52102zm-6.422-2.3925c-0.8305-0.33356-0.96591-0.85785-0.4695-1.8178 0.65802-1.2725 1.8806-1.0444 2.1518 0.40144 0.26594 1.4176-0.36232 1.9465-1.6823 1.4164zm8.2225-5.2585c1.4781-0.67443 2.2108-1.5043 2.8344-3.2105 0.49749-1.3611 0.50014-1.4732 0.06726-2.8465-0.33258-1.055-0.75738-1.6996-1.6214-2.4602-1.1285-0.99331-1.2395-1.0306-3.0703-1.0306-1.7985 0-1.9587 0.05066-3.0124 0.9526-1.4624 1.2518-1.8928 2.1471-1.8928 3.9376 0 2.3517 0.67474 3.5156 2.691 4.6417 1.1477 0.64099 2.6215 0.64685 4.0043 0.01593zm-3.1234-1.3891c-0.29104-0.16057-0.85659-0.59594-1.2568-0.9675-0.63463-0.58922-0.7276-0.8743-0.7276-2.2309 0-1.8505 0.22983-2.3508 1.4169-3.0845 1.9641-1.2139 4.4764-0.1673 5.1502 2.1456 0.31083 1.0669 0.2962 1.3122-0.13229 2.2179-0.85314 1.8033-2.9904 2.725-4.4505 1.9194zm104.13 1.3506c0.10267-0.20962 0.31275-0.67878 0.46684-1.0426s0.58679-1.3544 0.96155-2.2012l0.68138-1.5398 1.5165 0.18389c0.83408 0.10114 1.717 0.28803 1.9621 0.41531 0.77422 0.40206 1.5388 0.27409 1.5388-0.25757 0-0.57703-1.4168-1.2802-3.1727-1.5746-1.598-0.26793-1.6453-0.81531-0.14157-1.6368 0.65868-0.35982 1.1976-0.80135 1.1976-0.98117 0-0.48188-1.026-0.96426-1.406-0.66104-0.1726 0.13773-1.7426 0.99474-3.4888 1.9045-3.2983 1.7183-3.8975 2.1774-3.6577 2.8023 0.2102 0.54777 0.68567 0.46164 2.4771-0.44871 0.88737-0.45093 1.6678-0.76544 1.7344-0.69891 0.11856 0.11857-0.28685 1.1523-1.4671 3.7409-0.48095 1.0548-0.53643 1.4158-0.29804 1.939 0.30764 0.6752 0.78064 0.69955 1.0957 0.05641zm-1.5867-9.3886c3.7662-2.4848 4.0069-2.6852 3.894-3.2415-0.1655-0.81584-1.0904-0.44956-4.5068 1.7848-3.1427 2.0554-3.7726 2.7009-3.197 3.2764 0.36358 0.36358 0.86022 0.12637 3.8097-1.8196zm-92.654-0.25651c1.044-1.189 1.6979-2.4541 1.515-2.9307-0.25442-0.66301-0.86657-0.39808-1.5835 0.68534-0.4431 0.66956-0.90201 1.0583-1.2493 1.0583-0.3019 0-1.7494-0.89297-3.2167-1.9844-2.8238-2.1004-3.6352-2.4067-3.6352-1.372 0 0.46322 0.5623 1.0271 2.3087 2.3151 3.234 2.3852 4.391 3.1555 4.7415 3.1568 0.16682 5.29e-4 0.67062-0.41719 1.1195-0.92848zm87.421-2.8285c0.45039-0.32071 1.5279-1.2158 2.3945-1.989 1.9945-1.7797 2.6528-1.9699 3.5328-1.0209 0.36251 0.39095 0.79723 0.66484 0.96604 0.60863 0.6244-0.20788 0.45727-1.0326-0.40265-1.987-0.48657-0.53999-1.2403-1.4853-1.675-2.1006-0.52487-0.743-0.99034-1.1207-1.3857-1.1245-0.76505-0.0072-0.79582 0.78922-0.0564 1.4584 0.71098 0.64343 0.60149 0.9488-0.72122 2.0113-3.9151 3.1449-4.5802 3.758-4.5802 4.2217 0 0.69229 0.89696 0.65596 1.9278-0.07809zm-83.953-1.6603c0.26899-0.32411 0.13002-0.56263-0.80929-1.3891-0.62372-0.54877-2.0872-1.8663-3.2521-2.9279-1.4401-1.3124-2.2928-1.9052-2.664-1.8521-0.72963 0.10435-0.87502 1.1448-0.20973 1.5008 0.27534 0.14736 1.6815 1.343 3.1249 2.657 1.4434 1.314 2.8181 2.3921 3.0549 2.3958 0.23684 0.0037 0.57676-0.16935 0.75538-0.38456zm80.888-2.8356c0.73997-0.7172 0.87107-1.0287 0.86312-2.0505-5e-3 -0.66268-0.17953-1.5025-0.3875-1.8663-0.50249-0.87901-0.49413-1.9816 0.0189-2.4946 0.69214-0.69214 1.4029-0.5037 1.8809 0.49864 0.44038 0.92348 0.98949 1.3283 1.4314 1.0552 0.49804-0.30781 0.20892-1.2095-0.71612-2.2334-0.82698-0.91537-1.1074-1.0591-2.0668-1.0591-1.6747 0-2.2681 0.68429-2.2681 2.6155 0 0.88598 0.18134 1.9001 0.42832 2.3951 0.33688 0.6753 0.36561 0.99622 0.13458 1.5033-0.6579 1.4439-2.2988 0.95983-2.7976-0.82537-0.21686-0.77602-0.43465-1.0583-0.81644-1.0583-0.79139 0-0.8507 1.5308-0.10166 2.6239 1.2891 1.8813 3.0172 2.2335 4.397 0.89604zm-77.233-0.79476c0.55255-0.55255 0.36335-0.91184-1.6007-3.0397-1.055-1.143-2.2076-2.4038-2.5613-2.8019l-0.64311-0.72369 0.74362-0.77617c0.73856-0.77089 0.78478-1.6093 0.08787-1.5941-0.41925 0.0092-4.4401 3.8349-4.4401 4.2246 0 0.56703 0.83133 0.58738 1.4196 0.03475 0.76594-0.71956 1.2661-0.71102 1.9142 0.03267 2.9457 3.3799 4.4007 4.9609 4.5653 4.9609 0.1084 0 0.33997-0.14288 0.51459-0.3175zm71.411-4.4458c3.9429-5.029 4.3331-5.6088 4.0246-5.9805-0.53916-0.64964-1.012-0.40286-2.1608 1.1277-0.6177 0.82298-1.5398 1.9838-2.0491 2.5797-1.909 2.2332-2.4181 3.2073-1.9311 3.6942 0.39594 0.39594 1.0207-0.02357 2.1164-1.4211zm-66.292 0.46196c0.42867-0.32638 1.1608-0.91368 1.627-1.3051 0.80357-0.67469 0.82393-0.73576 0.39151-1.1743-0.43374-0.43988-0.50918-0.41996-1.5367 0.4058-1.3227 1.063-2.0318 0.96476-2.7567-0.3819l-0.51626-0.959 1.0454-0.89462c0.57498-0.49204 1.1347-0.89909 1.2439-0.90456 0.10914-0.0055 0.19844-0.24806 0.19844-0.5391 0-0.74701-0.93591-0.68535-2.0079 0.13229-1.019 0.77725-1.3532 0.81449-2.0062 0.22358-0.77654-0.70276-0.57338-1.3272 0.72174-2.2182 1.1966-0.8233 1.4837-1.6174 0.64332-1.7793-0.42184-0.08124-3.9656 2.459-3.9656 2.8426 0 0.12615 0.38695 0.74725 0.8599 1.3802 0.47294 0.63297 1.3286 1.8625 1.9015 2.7322 1.388 2.1072 2.563 3.3452 3.0115 3.1731 0.2011-0.07717 0.71637-0.40734 1.145-0.73372zm61.099-2.6439c0.27517-0.32742 1.1872-1.7515 2.0268-3.1647 1.5969-2.6879 2.0647-3.023 3.0171-2.161 0.56077 0.50749 1.3631 0.28926 1.2409-0.33749-0.1002-0.51362-4.3576-3.2555-5.065-3.262-0.69049-0.0064-0.47571 1.0918 0.28767 1.4709 0.33 0.16387 0.67111 0.36905 0.75803 0.45597 0.16077 0.16078-0.91231 2.1291-2.83 5.1911-0.58506 0.93416-1.003 1.8569-0.92866 2.0505 0.20666 0.53854 0.93606 0.41971 1.4932-0.24327zm-56.01-1.1364c0.08629-0.22486-0.20108-1.0797-0.6386-1.8995-0.44511-0.83411-0.69508-1.5911-0.56754-1.7187 0.12755-0.12755 1.2018 0.24297 2.4389 0.84121 2.391 1.1562 2.935 1.2681 3.4063 0.70032 0.23634-0.28478 0.20927-0.46569-0.11879-0.79375-0.2337-0.2337-0.52677-0.42491-0.65127-0.42491s-1.1386-0.42135-2.2535-0.93634l-2.0271-0.93634 0.18714-1.3788c0.10293-0.75832 0.36763-1.833 0.58822-2.3882 0.42562-1.0712 0.2123-1.6454-0.50854-1.3688-0.55883 0.21444-1.2783 1.8329-1.2783 2.8754 0 0.52243-0.20145 1.0584-0.49908 1.3277-0.47647 0.4312-0.5244 0.41068-1.0583-0.45324-0.30759-0.4977-0.55926-1.048-0.55926-1.2228 0-0.55289-1.1845-0.19185-1.2673 0.38628-0.04216 0.2943 0.47512 1.604 1.1495 2.9104 0.67439 1.3064 1.5146 2.9409 1.8671 3.6321 0.65621 1.2868 1.4736 1.6739 1.7906 0.84794zm52.812-4.8167c-2e-3 -2.583-0.10918-4.8624-0.23767-5.0653-0.19383-0.3061-0.38466-0.27546-1.1204 0.1799-0.48774 0.30187-1.244 0.92833-1.6806 1.3921-0.43656 0.46381-1.7782 1.6706-2.9815 2.6817-1.2033 1.0111-2.119 1.9496-2.0349 2.0857 0.27663 0.4476 1.2674 0.25862 2.2636-0.43174l0.97985-0.67904 3.4927 1.633v1.1326c0 1.1424 0.34623 1.7675 0.97895 1.7675 0.26946 0 0.34308-1.0172 0.33991-4.6964zm-2.8402-0.24459c-0.75485-0.52656-0.75088-0.90609 0.0171-1.6275 0.96927-0.9106 1.5043-0.75762 1.5043 0.43013 0 0.89305-0.37074 1.6656-0.78053 1.6265-0.08-0.0076-0.41341-0.20075-0.74083-0.42915zm-42.316 1.0962c-0.065992-0.70804-0.62588-2.7758-0.93629-3.458-0.30068-0.66076-0.16949-1.8443 0.19738-1.7806 0.14207 0.02465 1.7846 0.88978 3.65 1.9225 1.8655 1.0327 3.5028 1.8091 3.6386 1.7252 0.28178-0.17415 0.0316-2.2409-0.3173-2.6209-0.12692-0.13824-0.23497-0.61449-0.24013-1.0583-5e-3 -0.44384-0.17953-1.1046-0.3875-1.4684-0.20797-0.3638-0.38234-1.0418-0.3875-1.5066-0.0118-1.0697-1.0242-2.3101-1.5891-1.9472-0.325 0.20876-0.3359 0.39706-0.0661 1.1431 0.17763 0.49122 0.32296 1.138 0.32296 1.4373 0 0.29932 0.17741 0.96882 0.39424 1.4878 0.34984 0.83728 0.31934 1.7669-0.058 1.7669-0.12925 0-2.1444-1.0826-5.3633-2.8814-0.80036-0.44725-1.604-0.81534-1.7859-0.81798-0.36176-0.0052-0.47418 1.8802-0.13247 2.2219 0.19484 0.19484 0.6375 1.7921 1.1376 4.105 0.13943 0.64481 0.43919 1.4558 0.66613 1.8021 0.48588 0.74154 1.328 0.69306 1.2567-0.07234zm35.534-0.91966c0.3677-0.77333 0.87981-2.6529 1.0808-3.9669 0.0779-0.50932 0.2302-1.0451 0.33841-1.1906s0.27815-0.60472 0.37765-1.0204c0.15613-0.65231 0.27892-0.73642 0.89638-0.614 1.6046 0.31812 1.7545 0.30695 1.8465-0.13759 0.11549-0.55768-1.6832-1.5353-2.8247-1.5353-0.43378 0-0.86226-0.11906-0.9522-0.26458-0.21666-0.35056-2.1704-0.34108-2.3884 0.01159-0.25871 0.4186 0.35545 1.0052 1.1487 1.0972 0.87528 0.10148 1.0306 0.73926 0.46842 1.9239-0.23066 0.48608-0.41937 1.1281-0.41937 1.4267 0 0.29858-0.10566 0.81637-0.23479 1.1506-0.45144 1.1686-0.86574 3.3681-0.68845 3.655 0.28767 0.46545 1.0114 0.17853 1.351-0.53558zm-5.6862-0.98586c0.88288-0.52153 1.4564-2.0165 1.1863-3.0925-0.095-0.37872-0.55136-1.0146-1.014-1.413-1.7062-1.4694-2.0576-1.9057-2.0576-2.5552 0-1.0004 0.84321-1.3389 1.9853-0.79691 1.7925 0.85061 2.4359-0.30309 0.67107-1.2034-1.6295-0.83129-2.7086-0.71402-3.6873 0.4007-1.264 1.4396-1.1212 2.09 0.89863 4.0918 1.8596 1.8431 2.1199 2.6002 1.1318 3.2923-0.78486 0.54974-0.83665 0.53866-1.917-0.40991-0.97616-0.85708-1.7314-0.87741-1.7242-0.04642 5e-3 0.59613 0.20644 0.87559 1.1561 1.6049 0.92377 0.70944 2.2979 0.76147 3.3709 0.12763zm-19.577-2.1873c-0.053-1.0914-0.26141-2.3059-0.46302-2.6988-0.20162-0.39296-0.36657-1.2484-0.36657-1.901 0-1.7271-0.3934-2.6-1.1249-2.4961-0.65561 0.09312-0.65325 0.05928-0.2271 3.2595 0.13564 1.0186 0.37627 2.268 0.53474 2.7764 0.15845 0.50836 0.2881 1.3517 0.2881 1.8741 0 1.1109 0.17773 1.3532 0.91516 1.2476 0.49892-0.07142 0.5327-0.22845 0.4436-2.0617zm4.1443-0.26708c0.0435-1.0897 0.17533-2.0775 0.29299-2.1952 0.11767-0.11766 0.79646 0.5232 1.5084 1.4241 1.7704 2.2402 2.1558 2.6256 2.6257 2.6256 1.1962 0 0.47614-1.6834-1.5798-3.6931-0.66367-0.64876-1.2067-1.3113-1.2067-1.4723 0-0.16098 0.71438-1.1414 1.5875-2.1786 0.87313-1.0373 1.5875-1.9599 1.5875-2.0502 0-0.09036-0.38206-0.12698-0.84902-0.08137-0.68034 0.06644-1.0783 0.38519-2.0031 1.6043-0.63473 0.83674-1.3183 1.5214-1.519 1.5214-0.25872 0-0.38807-0.44289-0.44432-1.5214-0.0743-1.4252-0.12114-1.5214-0.74081-1.5214h-0.66145l0.0578 4.4839c0.0318 2.4661 0.12075 4.6478 0.19764 4.8482 0.0769 0.20038 0.34853 0.32451 0.60363 0.27583 0.38404-0.07328 0.47742-0.42929 0.54289-2.0698z" fill="#c9ca46"/>
    <path d="m114.08 178.76c-2.4902-0.11814-6.4809-0.60513-8.4667-1.0332-0.94589-0.2039-2.4342-0.50884-3.3073-0.67765-1.9635-0.37961-10.105-3.042-10.905-3.5661-0.32242-0.21126-0.70116-0.3841-0.84165-0.3841-0.89487 0-8.0834-3.8573-11.27-6.0472-2.8504-1.9591-3.1209-2.1654-6.6914-5.1035-11.932-9.8186-20.717-24.757-23.706-40.311-0.22375-1.1642-0.56067-2.8906-0.7487-3.8364-0.4546-2.2869-0.47905-18.334-0.03085-20.241 0.17106-0.7276 0.50988-2.454 0.75293-3.8365 0.41579-2.365 0.94257-4.5764 1.4496-6.0854 0.12224-0.3638 0.4299-1.3758 0.68371-2.249s0.54087-1.7066 0.63794-1.8521c0.09707-0.14552 0.44898-1.0385 0.78204-1.9844 0.74511-2.1161 4.0193-8.737 5.5609-11.245 1.5431-2.5103 4.0356-6.0123 5.6494-7.9375 3.3498-3.9962 9.9166-10.174 13.144-12.366 0.3638-0.24703 1.1972-0.82825 1.8521-1.2916 3.1272-2.2126 9.7987-5.7987 13.037-7.0076 10.761-4.0173 18.439-5.3506 29.032-5.0415 12.106 0.35325 23.426 3.6333 33.659 9.7528 10.02 5.992 18.853 14.764 24.592 24.42 2.5487 4.2884 5.6495 11.085 6.8199 14.949 1.1099 3.6641 1.6905 5.8221 1.8795 6.9855 0.12051 0.74186 0.41071 2.4204 0.64491 3.7301 0.92498 5.1728 1.0134 15.998 0.17614 21.564-1.5769 10.482-5.5319 20.783-11.277 29.371-4.4048 6.5845-11.912 14.299-18.022 18.518-2.8105 1.9411-4.1873 2.7902-7.2586 4.4764-2.4068 1.3214-8.2352 3.9903-8.714 3.9903-0.15742 0-1.028 0.30427-1.9346 0.67616-0.90662 0.37189-2.1246 0.77761-2.7067 0.9016-0.58208 0.12399-1.92 0.47457-2.9732 0.77905-1.0532 0.30449-2.2658 0.55361-2.6948 0.55361-0.42894 0-1.0887 0.11742-1.4662 0.26094-2.0018 0.76108-11.88 1.4258-17.34 1.1668zm-9.2693-11.922c0.65971-0.24194 1.5864-0.80108 2.0594-1.2425 0.81677-0.7624 0.85989-0.89853 0.85989-2.7148 0-1.6815-0.0844-2.0125-0.69975-2.7438-0.38486-0.45738-1.659-1.3053-2.8315-1.8843-2.5942-1.281-2.8188-1.4589-2.8188-2.233 0-1.2489 0.66198-1.5207 3.3595-1.3796l2.4613 0.12875v-1.1233c0-1.5836-0.67793-1.9805-3.3641-1.9694-3.7549 0.0155-6.1609 1.79-6.1609 4.544 0 1.1672 0.11421 1.4189 1.1245 2.4775 0.63526 0.66569 1.981 1.6086 3.0932 2.1674 2.1657 1.0881 2.5562 1.509 2.3099 2.4903-0.32954 1.313-2.8138 1.6975-4.7117 0.72931-1.4451-0.73723-1.8159-0.54384-1.8159 0.94705 0 1.1685 0.03836 1.2268 1.1245 1.7094 1.4584 0.64798 4.3796 0.69519 6.0104 0.0971zm30.998-0.0728c2.2917-1.0138 3.2547-2.9232 2.6349-5.2248-0.35528-1.3194-1.3036-2.2156-3.462-3.2717-2.8232-1.3814-3.4876-2.2927-2.3934-3.283 0.43504-0.39371 0.90712-0.45266 2.9766-0.37174l2.4595 0.0962 0.0803-0.96184c0.0653-0.78161-0.053-1.0667-0.631-1.5214-1.0914-0.85855-4.3978-0.79996-6.3257 0.11207-2.1659 1.0246-3.2336 3.1304-2.5282 4.9859 0.28615 0.75263 2.0647 2.8092 2.4294 2.8092 0.13165 0 1.0136 0.3775 1.9599 0.83889 1.7237 0.84044 2.1433 1.3862 1.9275 2.507-0.22692 1.1783-2.95 1.5246-4.7536 0.60442-0.5904-0.3012-1.2405-0.48353-1.4447-0.40518-0.39479 0.15149-0.51571 1.9051-0.16874 2.447 0.7371 1.1512 5.1923 1.5444 7.2392 0.63897zm-19.622-0.2637c0.16381-0.30608 0.27389-2.7406 0.27389-6.0571 0-6.2619-0.14947-5.8665 2.2177-5.8665 1.5506 0 2.0156-0.30998 2.0156-1.3434 0-1.2534-0.32329-1.319-6.1192-1.2418l-5.3901 0.0717v2.3812l1.7198 0.0755c1.2252 0.0538 1.8149 0.20151 2.0505 0.5136 0.23972 0.31751 0.33073 1.9386 0.33073 5.8908 0 3.8883 0.0911 5.5439 0.3175 5.7703 0.52773 0.52772 2.2672 0.39692 2.5836-0.19427zm9.667 0.24647c0.27358-0.44265 0.20641-14.318-0.0706-14.595-0.13907-0.13906-0.83501-0.21587-1.5465-0.17069l-1.2937 0.0822-0.0706 7.1398c-0.0388 3.9269-0.0128 7.2904 0.0578 7.4745 0.15473 0.40323 2.6802 0.46316 2.9236 0.0694zm-6.6004-22.784c1.2648-3.2653 3.9615-6.4388 7.0081-8.247 0.91051-0.54042 1.7382-0.98259 1.8394-0.98259 0.25542 0 1.1699-1.0364 1.0342-1.172-0.0608-0.0608-1.3062-0.70909-2.7677-1.4407-2.5843-1.2938-2.9561-1.5954-6.1244-4.9683-0.70904-0.75485-1.0326-0.78024-1.3918-0.10919-0.6633 1.2394-0.16451 3.8825 0.89929 4.7654 0.61737 0.51237 0.52439 2.008-0.16474 2.65-0.73244 0.68238-2.3472 0.72449-2.9312 0.0765-0.77775-0.86303-0.80382-1.7259-0.0821-2.7186 0.36764-0.50568 0.80884-1.2171 0.98044-1.5809 0.56274-1.1931 0.28726-3.9688-0.39389-3.9688-0.19245 0-1.351 0.98447-2.5746 2.1877-1.8608 1.8298-2.668 2.4033-4.9345 3.5057-1.8084 0.87961-2.7105 1.4636-2.712 1.7558-1e-3 0.25662 0.60855 0.78244 1.4738 1.2708 2.1552 1.2163 5.6878 4.7325 7.2863 7.2524 1.5649 2.4669 2.3363 3.3909 2.7234 3.2619 0.14927-0.0498 0.52372-0.74186 0.83209-1.538zm-11.259-13.045c3.6267-1.6296 6.0249-4.0892 7.3179-7.5052 1.3118-3.4656 0.5082-7.3925-1.9711-9.6324-1.2059-1.0895-3.5927-2.0657-5.0506-2.0657-2.0261 0-4.5296 2.0071-4.5296 3.6314 0 0.86642 1.3572 2.1895 2.246 2.1895 0.9915 0 1.6358-0.41135 1.825-1.1651 0.39557-1.5761 2.0884-2.0105 3.0535-0.78355 0.67651 0.86005 0.68618 1.3226 0.0495 2.3667-1.38 2.2631-5.3571 2.2707-7.5968 0.0145-0.98635-0.99357-1.1013-1.2519-1.2516-2.8138-0.26257-2.7279 0.19276-4.1037 1.8356-5.546 1.3993-1.2286 2.9944-1.8262 5.4128-2.0279 1.1636-0.097 2.1765-0.27491 2.2509-0.39525 0.23208-0.3755-0.86732-1.1103-2.3256-1.5544-1.3324-0.40573-1.3944-0.46476-1.3175-1.254 0.045-0.46223-0.1596-1.2992-0.46302-1.894-0.7298-1.4305-0.68712-2.3004 0.25005-5.0977 0.90728-2.708 0.9619-3.525 0.36988-5.5322-0.78461-2.6601-1.3373-2.7517-2.436-0.40374-0.49063 1.0484-1.5104 2.4684-2.6738 3.7231-2.027 2.1862-2.4124 2.8008-2.9067 4.6362-0.26439 0.98179-0.24951 1.463 0.0848 2.7434 0.223 0.85405 0.53724 1.7116 0.69831 1.9057 0.16338 0.19687 0.95569 0.3878 1.7922 0.43188 1.4909 0.0786 1.4949 0.081 0.70562 0.43196-2.348 1.044-3.2575 1.5923-4.1318 2.4907-0.53108 0.54571-1.1293 0.99219-1.3294 0.99219-0.20009 0-0.95005-0.31209-1.6666-0.69353-1.0826-0.5763-1.8425-0.73362-4.4958-0.93076-3.8563-0.28652-5.4731-0.62946-6.3982-1.3571-0.88763-0.69821-1.6763-2.4236-1.6838-3.6837-0.02024-3.4039-2.8148 0.92347-3.1082 4.813-0.10862 1.4399-0.0222 1.962 0.53113 3.2081 0.88406 1.991 2.3439 3.5487 4.2073 4.4893 2.1842 1.1026 3.9003 1.4846 7.6471 1.7023 1.8066 0.10496 3.4814 0.29315 3.7219 0.4182 0.24048 0.12504 0.68918 0.74777 0.9971 1.3838 0.75513 1.5599 2.6447 3.4248 4.3117 4.2555 1.7826 0.88832 4.8902 0.95426 7.2185 0.15319 1.8486-0.63603 1.9844-0.64436 1.9844-0.12176 0 1.218-2.3619 4.059-3.8424 4.6219-0.90096 0.34255-0.82359 0.12475 0.33165-0.93359 0.62991-0.57707 0.89322-0.99284 0.7276-1.1488-0.14275-0.13447-1.6288-0.30481-3.3023-0.37852-2.4868-0.10954-3.3327-0.25858-4.6302-0.81576-0.87312-0.37495-1.8256-0.68577-2.1167-0.6907-0.52891-9e-3 -0.85381-0.56116-2.0259-3.4432-0.67719-1.6651-1.037-1.8521-3.5645-1.8521-2.81 0-5.1174-0.54632-7.8383-1.8558-2.3973-1.1538-2.8432-1.2553-2.8432-0.64725 0 1.0611 2.537 3.9579 4.914 5.6111 1.8941 1.3173 6.1425 2.3694 9.8581 2.4414 0.25148 5e-3 0.18524 0.27715-0.23142 0.95132-0.76297 1.2345-0.47815 2.3665 0.81368 3.2338 1.3301 0.893 1.2676 1.1129-0.31721 1.117-1.7712 5e-3 -2.6017 0.22143-2.6017 0.6794 0 0.4386 0.60098 0.76809 3.1641 1.7347 1.8543 0.69931 2.229 0.74798 5.3026 0.68874 3.0113-0.058 3.4612-0.1329 5.0271-0.83651zm-3.9688-2.6734c0-0.0764 0.30764-0.25581 0.68366-0.39877 0.77221-0.29359 1.439-0.061 0.86594 0.30205-0.39169 0.24818-1.5496 0.32046-1.5496 0.0967zm33.37 3.1797c0.63676-0.2193 1.3959-0.51162 1.6869-0.6496s0.97565-0.42873 1.5214-0.64611c1.2553-0.50006 1.3295-1.2019 0.1323-1.2518-0.47295-0.0197-1.3634-0.0569-1.9788-0.0826s-1.1918-0.1197-1.281-0.20891c-0.0892-0.0892 0.31411-0.47739 0.89626-0.86264s1.2017-1.0463 1.3768-1.4691c0.27516-0.66429 0.24044-0.90073-0.25573-1.7417-0.73279-1.242-0.49427-1.4107 2.0024-1.416 2.1137-5e-3 5.2511-0.89357 7.2437-2.0526 2.5185-1.4649 5.7761-5.2458 5.1012-5.9207-0.13475-0.13475-1.1563 0.21297-2.4175 0.8229-2.7532 1.3314-4.9964 1.8547-7.9507 1.8547-1.885 0-2.4037 0.0882-2.7466 0.46714-0.38006 0.41996-1.7621 3.24-2.1211 4.3281-0.078 0.23629-0.56286 0.50862-1.0776 0.60518-0.5147 0.0966-1.5065 0.43305-2.2039 0.74775-1.0118 0.45653-1.8809 0.58862-4.2994 0.65342-1.6809 0.045-3.1542 0.20667-3.3073 0.36282-0.19302 0.19695 0.0223 0.52229 0.71619 1.0822 1.1155 0.90005 1.2897 1.4007 0.39688 1.1407-0.81172-0.23638-3.5419-3.1474-3.7575-4.0063-0.27812-1.1081 0.16836-1.2664 1.8245-0.64674 2.2553 0.84383 5.4113 0.78297 7.2636-0.14006 1.6539-0.8242 3.158-2.311 4.4034-4.3531l0.90189-1.4787 3.9101-0.27609c3.4091-0.24072 4.1888-0.38622 6.0848-1.1355 3.549-1.4024 5.2622-3.2822 5.9158-6.491 0.28115-1.3802 0.2619-1.8604-0.1404-3.502-0.47261-1.9286-1.7793-4.2912-2.3734-4.2912-0.19881 0-0.43689 0.72323-0.61333 1.8631-0.52754 3.4082-1.3106 3.8991-6.9596 4.3631-3.2842 0.26973-4.0383 0.41795-5.1573 1.0136-0.72083 0.38372-1.5102 0.69768-1.7541 0.69768-0.24394 0-1.0504-0.51803-1.7922-1.1512-1.2604-1.0759-1.8475-1.4304-3.8539-2.3274l-0.79375-0.35485 1.3768-0.0811c1.1479-0.0676 1.4862-0.21103 2.0345-0.86266 0.82885-0.98504 1.1382-2.8831 0.72298-4.4356-0.35096-1.3122-1.0325-2.2994-3.4123-4.9425-1.1381-1.2641-1.8451-2.3388-2.2267-3.3852-0.69204-1.8975-1.1108-1.889-2.12 0.04303-0.89682 1.7167-0.9479 3.0607-0.19839 5.2193 0.99465 2.8646 1.105 3.398 0.95866 4.6336-0.08 0.6752-0.38602 1.6233-0.68012 2.1069-0.3999 0.65759-0.46124 0.96782-0.2433 1.2304 0.39904 0.48082 0.16532 0.65231-1.7232 1.2644-1.2515 0.40564-1.6513 0.65989-1.7126 1.0891-0.074 0.51868 0.0802 0.57391 2.0924 0.74943 4.9564 0.43236 7.7126 3.1591 7.2967 7.2187-0.29135 2.8439-1.9947 4.4956-4.9086 4.7598-1.2128 0.10998-1.7394 0.0247-2.6197-0.4244-1.2692-0.64751-1.6486-1.2196-1.6486-2.4863 0-1.9343 2.0077-2.4012 3.0957-0.71986 1.0305 1.5924 1.1306 1.6581 2.291 1.5025 2.5272-0.33897 2.6293-3.2134 0.1719-4.8396-1.6955-1.122-3.2523-1.1471-5.5472-0.0893-1.9946 0.9194-3.0761 1.9304-4.0268 3.7645-0.4844 0.93447-0.5783 1.5515-0.57434 3.7737 5e-3 2.5606 0.0411 2.7258 1.0118 4.573 1.7255 3.2836 4.1611 5.3318 7.9436 6.68 1.7373 0.61924 6.4404 0.68394 8.1027 0.11147zm-6.9458-3.4824c-0.33038-0.40169-0.28038-0.4251 0.55465-0.25962 1.2641 0.25051 1.6644 0.70112 0.62275 0.70112-0.44785 0-0.97768-0.19867-1.1774-0.4415zm-10.834-18.971 0.81316-1.4213v-10.3c0-10.715 0.0223-10.935 1.1112-10.935 0.44978 0 0.47625 0.52846 0.47625 9.5061 0 8.1902 0.0562 9.5623 0.40583 9.9119 0.31696 0.31696 0.56254 0.34624 1.1215 0.13372 1.163-0.4422 2.428-1.3052 2.7242-1.8586 0.18078-0.33778 0.2529-3.8121 0.20895-10.065l-0.0671-9.5494 0.85485-0.69285c3.6232-2.9366 4.1873-3.8635 3.2859-5.3995-0.36106-0.61529-0.78737-0.87369-1.9172-1.162-0.7991-0.20394-1.573-0.49047-1.7198-0.63673-0.14689-0.14636-0.32638-2.2648-0.39919-4.7113-0.15531-5.2189-0.19824-5.3197-2.2664-5.3197-2.1035 0-2.2316 0.28964-2.2316 5.0465 0 3.8233-0.29864 5.6578-0.88901 5.461-0.54349-0.18117-0.66782-2.0794-0.68324-10.432-0.0145-7.8862-0.0383-8.2713-0.52702-8.5328-0.72177-0.38628-3.1145-0.34599-3.3752 0.05684-0.11773 0.1819-0.27359 4.6882-0.34635 10.014-0.10642 7.7893-0.20513 9.7709-0.50472 10.132-0.76479 0.9205-0.94785-0.01976-1.0828-5.5615-0.12144-4.9878-0.17442-5.4642-0.64588-5.8085-0.62572-0.4569-2.8318-0.4957-3.27-0.05752-0.2296 0.2296-0.3175 2.1049-0.3175 6.7733v6.4558l-0.88673 0.83344c-0.4877 0.45839-1.3825 1.1611-1.9885 1.5615-2.7062 1.7882-2.8597 4.5505-0.29006 5.2175 0.57676 0.1497 1.5249 0.39582 2.107 0.54696l1.0583 0.27478v15.866l1.2424 0.78792c1.4559 0.92332 2.3286 1.002 2.733 0.24635 0.19576-0.36578 0.27335-3.2546 0.23904-8.8997-0.0463-7.6088-0.0107-8.3806 0.397-8.6087 1.1957-0.66914 1.2094-0.55681 1.2094 9.9072v9.8656l0.8599 1.3805c0.47336 0.75994 1.0593 1.3837 1.3035 1.3875 0.26296 4e-3 0.77472-0.5717 1.2568-1.4142zm-11.358-22.92c-0.80087-0.80087-0.66628-1.7679 0.39357-2.8277 0.5075-0.50751 1.073-0.87338 1.2568-0.81306 0.41065 0.13483 0.56584 1.5258 0.339 3.0385-0.14645 0.97657-0.25803 1.1315-0.81493 1.1315-0.35488 0-0.88337-0.23812-1.1744-0.52917zm6.5035-0.33073c-0.0666-0.32742-0.19048-1.6735-0.27525-2.9913-0.14769-2.2961-0.12713-2.4213 0.49338-3.0043 0.35613-0.33456 0.77538-0.52926 0.93167-0.43266 0.30409 0.18794 0.39888 5.3779 0.11741 6.4283-0.0931 0.34743-0.36493 0.59531-0.65281 0.59531-0.29925 0-0.54091-0.23415-0.6144-0.59531zm6.2011-0.98461c-0.53797-0.33895-0.75655-5.9027-0.25561-6.5063 0.38972-0.46958 1.4544-0.4075 1.4152 0.08253-0.0145 0.1819-0.0443 1.5581-0.0662 3.0583-0.0418 2.8738-0.35309 3.8319-1.0934 3.3654zm5.698-3.2487c-0.0559-0.1819-0.16941-1.0749-0.25222-1.9844-0.16962-1.8627-0.0312-1.9772 1.3627-1.1274 1.1383 0.69403 1.214 1.4084 0.28702 2.7101-0.54707 0.76829-1.2249 0.9631-1.3975 0.40163zm-27.413 25.135c0.96071-1.025 0.96189-1.0372 0.24402-2.5201-0.95307-1.9688-0.91302-3.5096 0.19242-7.4018 0.14379-0.50628 0.06786-0.59531-0.50772-0.59531-0.81082 0-6.1424 2.635-7.9327 3.9205-2.2855 1.6411-3.6681 5.137-2.3175 5.8598 0.28147 0.15064 1.6805 0.2776 3.1089 0.28215 2.2889 7e-3 2.7227 0.0856 3.6554 0.6601 1.496 0.92142 2.5587 0.86008 3.5572-0.20534zm41.025 0.19844c1.1419-0.57867 1.6475-0.66146 4.0393-0.66146 1.7737 0 2.8455-0.11153 3.0515-0.3175 0.17462-0.17463 0.3175-0.80906 0.3175-1.4098 0-1.4048-1.169-3.2144-2.8605-4.428-1.8736-1.3443-7.6483-4.1754-8.1354-3.9884-0.47659 0.18289-0.36557 0.93552 0.36449 2.4709 0.2712 0.57035 0.44121 1.5949 0.44262 2.6674 2e-3 1.4707-0.1108 1.9048-0.7253 2.7924-0.9459 1.3663-0.91837 1.7262 0.20764 2.7149 1.1318 0.99369 1.6069 1.0167 3.2981 0.1597zm34.729-15.235c2.8082-2.6627 3.7532-3.7985 3.3052-3.9728-0.0364-0.01416-1.3163-0.12153-2.8443-0.23862-1.528-0.11709-3.5886-0.36236-4.5792-0.54505-1.5891-0.29307-1.8511-0.28212-2.2262 0.09305-0.62792 0.62793-8e-3 1.2455 1.2511 1.2455 1.1884 0 1.6979 0.62295 2.1653 2.6478 0.30457 1.3195 0.29935 1.34-0.56805 2.2349-0.85922 0.88649-0.96484 1.7318-0.21637 1.7318 0.1876 0 1.8582-1.4385 3.7125-3.1967zm-1.7674-1.7103c-0.20638-0.82228-0.0145-1.1785 0.63485-1.1785 1.3107 0 1.6957 0.64437 0.84508 1.4142-0.69859 0.63222-1.2856 0.53872-1.4799-0.23574zm-107.18 3.3203c0-0.54083-0.15948-0.67998-0.92604-0.80802-0.50932-0.08507-1.278-0.34137-1.7081-0.56956-0.74706-0.39634-0.78255-0.49551-0.79375-2.2181-0.01144-1.7594-0.03423-1.8185-0.93777-2.433-1.0611-0.72166-2.4284-0.6652-3.2063 0.13241-0.54899 0.56292-1.5799 3.4091-1.4024 3.8717 0.1378 0.3591 1.3264 0.89479 2.7566 1.2424 0.50932 0.12379 1.5809 0.42095 2.3812 0.66036 3.5605 1.065 3.8365 1.0738 3.8365 0.12188zm-6.8896-2.7539c-0.48845-0.35716-0.4906-0.40913-0.05485-1.3229 0.53727-1.1267 1.3097-1.2543 1.9233-0.31771 0.61783 0.94292 0.27476 2.0124-0.64554 2.0124-0.39297 0-0.94329-0.1673-1.2229-0.37177zm8.69-4.8972c1.4781-0.67443 2.2108-1.5043 2.8344-3.2105 0.49749-1.3611 0.50014-1.4732 0.06726-2.8465-0.33258-1.055-0.75738-1.6996-1.6214-2.4602-1.1285-0.99331-1.2395-1.0306-3.0703-1.0306-1.7985 0-1.9587 0.05066-3.0124 0.9526-1.4624 1.2518-1.8928 2.1471-1.8928 3.9376 0 2.3517 0.67474 3.5156 2.691 4.6417 1.1477 0.64099 2.6215 0.64685 4.0043 0.01593zm-3.1234-1.3891c-0.29104-0.16057-0.85659-0.59594-1.2568-0.9675-0.63463-0.58922-0.7276-0.8743-0.7276-2.2309 0-1.8505 0.22983-2.3508 1.4169-3.0845 1.9497-1.205 4.4688-0.1463 5.1512 2.1649 0.30943 1.048 0.2945 1.2944-0.13329 2.1986-0.85314 1.8033-2.9904 2.725-4.4505 1.9194zm104.13 1.3506c0.10267-0.20962 0.31275-0.67878 0.46684-1.0426s0.58679-1.3544 0.96155-2.2012l0.68138-1.5398 1.5165 0.18389c0.83408 0.10114 1.717 0.28803 1.9621 0.41531 0.77422 0.40206 1.5388 0.27409 1.5388-0.25757 0-0.54552-1.3266-1.2315-3.0413-1.5728-1.4538-0.2893-1.51-0.91571-0.15182-1.6914 0.58981-0.33686 1.0733-0.75712 1.0744-0.9339 3e-3 -0.47692-1.0258-0.95728-1.4039-0.65551-0.1726 0.13773-1.7426 0.99474-3.4888 1.9045-3.2983 1.7183-3.8975 2.1774-3.6577 2.8023 0.20456 0.53306 0.73425 0.46142 2.1464-0.2903 2.2304-1.1873 2.3375-0.87466 0.82223 2.3992-0.68898 1.4885-0.77258 1.874-0.52448 2.4186 0.30961 0.67952 0.78214 0.7059 1.0979 0.06129zm-1.5867-9.3886c3.7662-2.4848 4.0069-2.6852 3.894-3.2415-0.1655-0.81584-1.0904-0.44956-4.5068 1.7848-3.1427 2.0554-3.7726 2.7009-3.197 3.2764 0.36358 0.36358 0.86022 0.12637 3.8097-1.8196zm-92.654-0.25651c1.044-1.189 1.6979-2.4541 1.515-2.9307-0.25442-0.66301-0.86657-0.39808-1.5835 0.68534-0.4431 0.66956-0.90201 1.0583-1.2493 1.0583-0.3019 0-1.7494-0.89297-3.2167-1.9844-2.8238-2.1004-3.6352-2.4067-3.6352-1.372 0 0.46322 0.5623 1.0271 2.3087 2.3151 3.234 2.3852 4.391 3.1555 4.7415 3.1568 0.16682 5.29e-4 0.67062-0.41719 1.1195-0.92848zm87.421-2.8285c0.45039-0.32071 1.5279-1.2158 2.3945-1.989 1.9945-1.7797 2.6528-1.9699 3.5328-1.0209 0.36251 0.39095 0.79723 0.66484 0.96604 0.60863 0.6244-0.20788 0.45727-1.0326-0.40265-1.987-0.48657-0.53999-1.2403-1.4853-1.675-2.1006-0.52487-0.743-0.99034-1.1207-1.3857-1.1245-0.74383-0.0071-0.7771 0.60582-0.0809 1.4909 0.62641 0.79635 0.52751 1.0582-0.78371 2.0754-3.2332 2.508-4.4932 3.6648-4.4932 4.1252 0 0.69229 0.89696 0.65596 1.9278-0.07809zm-83.953-1.6603c0.26899-0.32411 0.13002-0.56263-0.80929-1.3891-0.62372-0.54877-2.0872-1.8663-3.2521-2.9279-1.4401-1.3124-2.2928-1.9052-2.664-1.8521-0.72963 0.10435-0.87502 1.1448-0.20973 1.5008 0.27534 0.14736 1.6815 1.343 3.1249 2.657 1.4434 1.314 2.8181 2.3921 3.0549 2.3958 0.23684 0.0037 0.57676-0.16935 0.75538-0.38456zm80.942-2.8906c0.79547-0.82072 0.86228-1.0143 0.75317-2.1828-0.0658-0.70521-0.27489-1.6482-0.46452-2.0954-0.18963-0.44728-0.2681-1.1188-0.17438-1.4922 0.32242-1.2847 1.7481-1.2558 2.2874 0.04623 0.32392 0.78201 0.91947 1.1882 1.351 0.9215 0.49804-0.30781 0.20891-1.2095-0.71612-2.2334-0.82699-0.91537-1.1075-1.0591-2.0668-1.0591-1.7192 0-2.2681 0.67105-2.2681 2.7728 0 0.93163 0.11906 1.7675 0.26458 1.8574 0.14552 0.08994 0.26458 0.6353 0.26458 1.2119 0 0.85762-0.1187 1.1025-0.65235 1.3456-0.90667 0.41311-1.7421-0.18678-2.116-1.5194-0.21252-0.75746-0.43206-1.0382-0.81197-1.0382-0.79139 0-0.8507 1.5308-0.10166 2.6239 1.3141 1.9179 3.0834 2.2522 4.4511 0.84108zm-77.287-0.73981c0.17462-0.17462 0.3175-0.45401 0.3175-0.62085 0-0.16684-1.0716-1.471-2.3812-2.8981-1.3097-1.4271-2.3812-2.7772-2.3812-3.0001 0-0.22295 0.25319-0.67487 0.56264-1.0043 0.57692-0.6141 0.52445-1.4256-0.09132-1.4122-0.41925 0.0092-4.4401 3.8349-4.4401 4.2246 0 0.56703 0.83133 0.58738 1.4196 0.03475 0.3294-0.30945 0.71029-0.56249 0.84643-0.56232 0.39294 5.29e-4 1.4604 1.023 3.5216 3.3731 1.0529 1.2005 2.0031 2.1828 2.1115 2.1828 0.1084 0 0.33997-0.14288 0.51459-0.3175zm71.411-4.4458c3.9429-5.029 4.3331-5.6088 4.0246-5.9805-0.53916-0.64964-1.012-0.40286-2.1608 1.1277-0.6177 0.82298-1.5398 1.9838-2.0491 2.5797-1.909 2.2332-2.4181 3.2073-1.9311 3.6942 0.39594 0.39594 1.0207-0.02357 2.1164-1.4211zm-66.292 0.46196c2.3362-1.7787 2.5064-1.9847 2.0351-2.4629-0.41178-0.41782-0.51475-0.39207-1.6276 0.40709-1.4108 1.0131-1.967 0.92834-2.6876-0.40968l-0.5111-0.94906 1.0454-0.89462c0.57498-0.49204 1.1347-0.89909 1.2439-0.90456 0.10914-0.0055 0.19844-0.24806 0.19844-0.5391 0-0.74701-0.93591-0.68535-2.0079 0.13229-1.019 0.77725-1.3532 0.81449-2.0062 0.22358-0.77654-0.70276-0.57338-1.3272 0.72174-2.2182 1.1966-0.8233 1.4837-1.6174 0.64332-1.7793-0.42184-0.08124-3.9656 2.459-3.9656 2.8426 0 0.12615 0.38695 0.74725 0.8599 1.3802 0.47294 0.63297 1.3286 1.8625 1.9015 2.7322 1.388 2.1072 2.563 3.3452 3.0115 3.1731 0.2011-0.07717 0.71637-0.40734 1.145-0.73372zm61.095-2.6439c0.27332-0.32742 1.1699-1.6985 1.9924-3.0467 0.8225-1.3483 1.6104-2.5224 1.7508-2.6092 0.14042-0.08679 0.65978 0.06002 1.1541 0.32624 0.95069 0.51198 1.6559 0.26158 1.369-0.48607-0.1769-0.461-4.4857-3.1139-5.0576-3.1139-0.6955 0-0.4988 0.87288 0.35775 1.5875l0.79282 0.66146-0.92954 1.5875c-0.51125 0.87312-1.4077 2.3518-1.9922 3.286-0.58445 0.93416-1.0018 1.8569-0.92754 2.0505 0.20674 0.53875 0.93654 0.41959 1.4899-0.24327zm-56.012-1.1215c0.08314-0.21666-0.14225-0.97809-0.50086-1.6921-0.5896-1.1739-0.83413-2.1473-0.53941-2.1473 0.06194 0 1.0974 0.47625 2.3011 1.0583 2.3687 1.1455 2.9133 1.2565 3.3839 0.68949 0.23634-0.28478 0.20927-0.46569-0.11879-0.79375-0.2337-0.2337-0.52716-0.42491-0.65213-0.42491-0.41447 0-3.8325-1.657-4.034-1.9556-0.26079-0.38649 0.03257-2.4149 0.53282-3.6841 0.42245-1.0718 0.20814-1.6451-0.51175-1.3688-0.5562 0.21343-1.2783 1.831-1.2783 2.8635 0 0.87678-0.38874 1.4991-0.93639 1.4991-0.16576 0-0.5289-0.47853-0.80698-1.0634-0.3722-0.78285-0.64519-1.0446-1.0348-0.99219-0.88334 0.11888-0.74355 1.0231 0.54369 3.5167 0.67439 1.3064 1.5146 2.9409 1.8671 3.6321 0.65162 1.2778 1.4732 1.675 1.7848 0.86285zm52.818-4.8316c-2e-3 -2.583-0.10918-4.8624-0.23767-5.0653-0.19383-0.3061-0.38466-0.27546-1.1204 0.1799-0.48774 0.30187-1.244 0.92833-1.6806 1.3921-0.43656 0.46381-1.7782 1.6706-2.9815 2.6817-1.2033 1.0111-2.119 1.9496-2.0349 2.0857 0.27505 0.44503 1.2652 0.26016 2.2457-0.41928 0.9402-0.65156 0.9852-0.65684 1.9986-0.23432 1.9223 0.80148 2.492 1.3623 2.492 2.4535 0 1.0114 0.36868 1.6224 0.97895 1.6224 0.26946 0 0.34308-1.0172 0.33991-4.6964zm-3.0144-0.56845c-0.46061-0.50897-0.45363-0.54762 0.22056-1.2218 0.9096-0.9096 1.3426-0.73043 1.3426 0.55555 0 0.84393-0.10093 1.0507-0.54376 1.1141-0.29907 0.04279-0.75781-0.15873-1.0194-0.44781zm-42.142 1.4201c-0.06851-0.73508-0.63052-2.8144-0.90861-3.3616-0.36256-0.71348-0.28181-1.7895 0.1343-1.7895 0.20227 0 1.8774 0.83537 3.7225 1.8564 1.8451 1.021 3.4658 1.7877 3.6016 1.7038 0.28178-0.17415 0.0316-2.2409-0.3173-2.6209-0.12692-0.13824-0.23497-0.61449-0.24013-1.0583-5e-3 -0.44384-0.17953-1.1046-0.3875-1.4684-0.20797-0.3638-0.38234-1.0324-0.3875-1.4857-0.0116-1.0174-0.92345-2.2572-1.498-2.0368-0.29366 0.11269-0.36229 0.35452-0.24063 0.84786 0.0936 0.37961 0.27647 1.1665 0.40635 1.7485 0.12988 0.58208 0.31558 1.3838 0.41266 1.7815 0.0971 0.39776 0.10407 0.91198 0.0155 1.1427-0.16654 0.43399-0.39525 0.32924-5.4553-2.4983-0.80036-0.44725-1.604-0.81534-1.7859-0.81798-0.36176-0.0052-0.47418 1.8802-0.13247 2.2219 0.19484 0.19484 0.6375 1.7921 1.1376 4.105 0.13943 0.64481 0.43919 1.4558 0.66613 1.8021 0.48588 0.74154 1.328 0.69306 1.2567-0.07234zm35.534-0.91966c0.33653-0.70778 0.8484-2.5437 1.0691-3.8346 0.0746-0.43656 0.37025-1.3124 0.65691-1.9463 0.47077-1.0411 0.59016-1.1362 1.2342-0.98386 1.2998 0.30748 1.4858 0.28808 1.5795-0.16479 0.11549-0.55768-1.6832-1.5353-2.8247-1.5353-0.43378 0-0.86226-0.11906-0.9522-0.26458-0.21666-0.35056-2.1704-0.34108-2.3884 0.01159-0.25871 0.4186 0.35545 1.0052 1.1487 1.0972 0.87528 0.10148 1.0306 0.73926 0.46842 1.9239-0.23066 0.48608-0.41937 1.1281-0.41937 1.4267 0 0.29858-0.10566 0.81637-0.23479 1.1506-0.45144 1.1686-0.86574 3.3681-0.68845 3.655 0.28767 0.46545 1.0114 0.17853 1.351-0.53558zm-5.6862-0.98586c0.88288-0.52153 1.4564-2.0165 1.1863-3.0925-0.095-0.37872-0.55075-1.0146-1.0127-1.413-1.5366-1.3255-2.0589-1.9866-2.0589-2.6059 0-0.94786 0.87073-1.2752 1.9853-0.74625 1.7925 0.85061 2.4359-0.30309 0.67107-1.2034-1.6295-0.83129-2.7086-0.71402-3.6873 0.4007-1.2885 1.4675-1.1371 2.1636 0.89863 4.1319 1.862 1.8002 2.1251 2.5565 1.1318 3.2523-0.78486 0.54974-0.83665 0.53866-1.917-0.40991-0.97616-0.85708-1.7314-0.87741-1.7242-0.04642 5e-3 0.59613 0.20644 0.87559 1.1561 1.6049 0.92377 0.70944 2.2979 0.76147 3.3709 0.12763zm-19.577-2.1873c-0.053-1.0914-0.26141-2.3059-0.46302-2.6988-0.20162-0.39296-0.36657-1.2484-0.36657-1.901 0-1.7271-0.3934-2.6-1.1249-2.4961-0.45696 0.0649-0.58028 0.23784-0.5319 0.74595 0.16724 1.7563 1.0375 7.2504 1.2917 8.1545 0.0542 0.19294 0.36519 0.31137 0.69469 0.26458 0.56852-0.08073 0.59197-0.17775 0.50004-2.0691zm4.1338 0.2621c0.0377-0.799 0.13371-1.7382 0.21331-2.0872 0.14322-0.62788 0.15577-0.62374 1.2048 0.39688 0.58306 0.56725 1.2967 1.4122 1.5858 1.8776 0.56797 0.91438 1.451 1.3507 1.8752 0.92647 0.4401-0.4401-4e-3 -1.2684-1.6589-3.0946-1.817-2.005-1.8239-1.9103 0.32202-4.4026 0.70618-0.82012 1.284-1.5643 1.284-1.6536 0-0.08938-0.35442-0.16251-0.78759-0.16251-0.63483 0-0.99979 0.26944-1.8815 1.3891-1.7569 2.231-2.0076 2.2233-2.1511-0.06615-0.0673-1.0737-0.13958-1.1906-0.73609-1.1906h-0.66145l0.0201 4.3856c0.0216 4.7236 0.12368 5.3587 0.83899 5.2227 0.36441-0.06928 0.47852-0.39955 0.53241-1.5409z" fill="#158ac6"/>
   </g>
   <path transform="scale(.26458)" d="m417.96 667.99c-35.332-5.4548-69.046-16.53-95.773-31.462-51.898-28.994-90.922-69.456-116.73-121.03-13.482-26.946-20.597-48.983-25.864-80.11-2.6245-15.511-2.6902-16.905-2.3083-48.992 0.38236-32.124 0.47785-33.441 3.495-48.179 7.2273-35.304 18.023-63.182 36.184-93.439 25.399-42.316 67.895-81.639 112.22-103.84 26.807-13.428 61.643-24.225 89.282-27.671 13.78-1.7182 57.764-1.7327 71.721-0.0238 30.799 3.7712 70.28 16.93 98.765 32.917 24.287 13.631 37.268 23.496 59.18 44.976 16.971 16.636 25.723 27.162 38.095 45.817 22.414 33.796 35.625 67.748 42.939 110.36 2.5495 14.852 2.7745 18.333 2.7745 42.931 0 24.457-0.23437 28.132-2.713 42.55-3.6661 21.325-7.6548 37.222-13.278 52.92-13.153 36.717-36.718 73.789-65.006 102.27-41.315 41.591-95.394 69.449-152.68 78.647-22.671 3.6406-61.329 4.3001-80.307 1.3701zm71.721-10.085c30.266-4.0184 55.934-11.915 84.186-25.899 33.467-16.565 61.648-39.193 87.891-70.569 26.626-31.834 46.28-73.267 55.267-116.51 3.9244-18.883 4.7665-30.914 4.232-60.465-0.41967-23.201-0.86123-29.145-3.0976-41.705-4.6717-26.236-11.711-46.916-25.099-73.741-13.633-27.315-28.095-47.243-49.999-68.895-15.438-15.26-24.977-23.103-41.673-34.259-25.68-17.16-58.297-31.122-87.969-37.654-32.835-7.229-71.971-8.3878-103.54-3.0659-24.238 4.0859-53.481 13.695-75.287 24.74-27.654 14.007-43.622 25.572-67.364 48.79-24.196 23.663-36.498 40.229-50.762 68.361-13.552 26.729-20.164 45.651-25.928 74.209-2.8103 13.924-2.8543 14.689-2.8445 49.497 0.0108 38.306 0.13334 39.473 7.0618 67.197 15.911 63.666 56.939 121.22 112.59 157.95 34.114 22.514 74.281 37.408 114.86 42.592 12.401 1.5842 53.864 1.2296 67.471-0.57702z" fill="#9f5" stroke-width="1.0102"/>
   <g fill="#ffd42a" stroke-width="1.0102">
    <path transform="scale(.26458)" d="m376.51 478.77c-13.798-5.3564-14.546-6.7154-4.4678-8.1171 3.5685-0.49631 6.6955-1.0825 6.949-1.3027 0.25348-0.22015-1.4512-2.148-3.7881-4.2842-4.5742-4.1812-5.2225-6.8347-2.7337-11.188 0.794-1.389 1.4598-2.8217 1.4794-3.1838 0.0197-0.36214-2.8053-0.96472-6.2777-1.3391-9.7066-1.0465-22.431-4.2557-27.938-7.0463-2.7342-1.3855-7.7585-5.0996-11.165-8.2536-6.0516-5.6027-12.005-14.006-10.786-15.225 0.3361-0.33609 4.952 1.3002 10.258 3.6362 10.444 4.5983 21.484 7.1676 30.799 7.1676 3.2392 0 6.6609 0.29604 7.6038 0.65785 0.94289 0.36183 3.4339 4.3975 5.5356 8.9682 2.1017 4.5707 4.4357 8.6916 5.1868 9.1576 4.6415 2.8799 15.714 5.6345 26.619 6.6227 6.667 0.60408 12.318 1.2783 12.558 1.4982 0.23981 0.21994-1.0928 1.9773-2.9614 3.9052-3.8656 3.9883-3.5699 5.409 0.66374 3.1882 5.7725-3.0281 13.478-12.975 13.478-17.398 0-1.8486-0.37523-1.8146-10.566 0.9561-16.49 4.4832-29.584-0.68625-39.372-15.544-5.0418-7.653-4.6607-7.4911-20.268-8.6107-23.362-1.6759-36.258-8.4051-43.068-22.473-3.7453-7.7368-2.117-22.38 3.393-30.513 3.3327-4.9191 4.4485-4.7984 5.183 0.56055 0.88394 6.449 4.4538 12.4 8.7254 14.545 4.2029 2.1106 7.0345 2.6456 21.697 4.0988 7.2254 0.71615 13.229 1.9574 17.252 3.5667 3.3934 1.3576 6.5337 2.4683 6.9783 2.4683 0.44465 0 2.5568-1.5796 4.6938-3.5102 2.1369-1.9306 7.1923-5.2004 11.234-7.2662l7.3488-3.756-4.8993-0.74578c-7.247-1.1031-7.5005-1.3076-9.3007-7.5001-2.9467-10.136-0.99744-15.833 9.6821-28.295 3.596-4.1963 8.1517-10.445 10.124-13.886s4.215-6.2565 4.9844-6.2565c1.882 0 4.9731 9.0099 5.025 14.647 0.023 2.5001-1.0877 8.1822-2.4682 12.627-2.8877 9.297-3.1744 14.903-1.0252 20.047 0.83338 1.9946 1.5152 5.028 1.5152 6.7409 0 2.6621 0.55015 3.3296 3.7881 4.5958 5.6976 2.2281 10.354 4.7065 10.354 5.511 0 0.39404-3.9775 1.2245-8.8388 1.8454-20.19 2.5788-29.231 12.617-27.054 30.039 0.92661 7.4163 5.8789 12.695 14.172 15.106 7.9088 2.2992 13.075 1.2646 17.93-3.5904 4.4728-4.4728 4.8376-7.6546 1.3136-11.457-4.1213-4.4469-8.77-3.0522-12.102 3.6308-1.6878 3.3853-5.8939 4.5153-9.0672 2.4361-1.4243-0.93322-3.3074-2.7922-4.1846-4.1311-1.4167-2.1622-1.429-2.7535-0.11005-5.2892 2.9248-5.6229 10.417-10.431 16.254-10.431 5.5439 0 14.138 4.2219 19.301 9.4819 16.827 17.143 7.5819 47.651-18.449 60.876l-7.6527 3.888-13.737 0.23808c-12.312 0.21338-14.366-6e-3 -19.798-2.1148zm30.346-10.817c0.36622-0.59254 0.42555-1.3177 0.13185-1.6114-0.82911-0.82912-6.7394 0.71333-6.7394 1.7588 0 1.2982 5.794 1.1689 6.6075-0.14747z"/>
    <path transform="scale(.26458)" d="m368.84 387.22c-2.518-1.3309-6.8492-2.1316-14.142-2.6142-5.7819-0.38265-11.081-1.1459-11.775-1.6961-3.4051-2.6976 0.70058-12.895 7.6572-19.018 4.9948-4.3966 27.278-16.08 30.669-16.08 1.7263 0 1.9627 0.45348 1.4482 2.7779-0.33822 1.5279-1.1538 6.2194-1.8123 10.426-1.052 6.7196-0.98154 8.252 0.58098 12.627 3.058 8.562 3.0619 9.8185 0.0401 12.84-3.2858 3.2858-7.3924 3.525-12.666 0.73769z"/>
    <path transform="scale(.26458)" d="m452.1 398.06c-5.5838-6.2252-5.3755-4.6305-5.5041-42.146-0.0657-19.183-0.40667-36.204-0.75762-37.825-0.71234-3.29-1.9204-4.0514-4.1736-2.6305-1.2771 0.80538-1.6042 6.1604-2.0813 34.076-0.31136 18.216-0.65229 33.234-0.75762 33.373-0.81679 1.0771-6.1784-0.2109-9.8606-2.3688l-4.473-2.6214v-60.216l-5.3033-1.2394c-8.8154-2.0601-11.5-3.5212-12.678-6.8988-1.6005-4.5912 1.7633-9.939 10.405-16.542l7.0711-5.4029 0.50508-24.708c0.27779-13.589 0.87283-25.276 1.3223-25.97 1.2177-1.8814 10.251-1.625 11.88 0.33714 0.92529 1.1149 1.5655 7.4261 2.112 20.822 0.79159 19.401 1.2493 23.035 2.901 23.035 2.5886 0 3.1667-5.8699 3.9991-40.607 0.67879-28.326 1.1717-36.663 2.2091-37.368 1.4842-1.008 10.558-0.51701 11.712 0.6337 0.40447 0.40332 0.99289 15.811 1.3076 34.239 0.54112 31.686 0.98005 37.041 3.0359 37.041 2.2 0 3.2365-5.4581 3.7229-19.604 0.67887-19.744 0.6977-19.792 7.818-19.792 4.8456 0 5.7351 0.30705 6.5844 2.2728 0.54005 1.2501 1.3669 9.3584 1.8375 18.019 0.47059 8.6601 1.1786 16.268 1.5732 16.907s3.1906 1.88 6.2131 2.7587c5.8016 1.6866 8.5438 4.3459 8.5438 8.2857 0 3.4607-2.5507 6.7644-9.9938 12.944l-6.6737 5.541v36.734c0 41.501 0.50946 38.852-8.2901 43.112-3.434 1.6624-4.7664 1.8942-5.6749 0.98736-0.84408-0.8425-1.3333-11.377-1.6924-36.443-0.53288-37.198-0.8985-39.94-4.8054-36.036-1.6022 1.6012-1.7873 5.2595-2.0583 40.674l-0.2977 38.914-3.0719 4.9925c-1.6896 2.7459-3.4083 4.9925-3.8194 4.9925s-1.6648-1.0228-2.7861-2.2728zm-28.593-89.212c1.1026-2.9 1.3086-9.5326 0.372-11.973-0.92553-2.4119-3.2509-1.9298-6.5356 1.3549-3.7634 3.7634-4.0978 9.2626-0.70768 11.637 3.2878 2.3029 5.7471 1.9383 6.8713-1.0186zm22.302-1.1969c1.1872-3.1011 0.8559-22.87-0.4043-24.126-1.1364-1.133-4.0308 0.88288-5.4042 3.7638-1.1832 2.4819-0.31415 19.746 1.11 22.05 1.229 1.9886 3.6199 1.1298 4.6985-1.6876zm22.245-6.8309c0.35524-1.66 0.69967-7.4502 0.7654-12.867 0.11925-9.827 0.11396-9.849-2.3703-9.849-3.9364 0-4.8961 3.1109-4.3646 14.148 0.25864 5.3712 0.81267 10.32 1.2312 10.997 1.3148 2.1274 4.0651 0.71786 4.7384-2.4285zm22.317-9.3316c4.6176-5.2937 4.5805-8.8736-0.12073-11.651-5.6592-3.343-6.5255-2.589-5.7478 5.0024 0.37958 3.7049 0.92375 7.1142 1.2093 7.5762 0.85569 1.3845 3.0178 0.95399 4.6592-0.92781z"/>
    <path transform="scale(.26458)" d="m494.09 478.75c-12.097-4.2702-22.294-13.286-28.279-25-3.0784-6.026-3.2896-7.101-3.2754-16.676 0.0136-9.1656 0.28691-10.696 2.6163-14.647 3.3962-5.7611 7.1792-9.2471 13.388-12.337 7.3799-3.6726 11.869-4.2562 17.169-2.2321 12.254 4.6799 14.44 17.593 3.2847 19.403-3.2957 0.53481-3.7469 0.26619-6.6562-3.9622-4.3222-6.2821-7.6473-7.3938-11.272-3.7689-3.2276 3.2276-2.7466 9.3108 0.98449 12.45 4.7611 4.0062 9.1814 5.0619 15.608 3.7277 11.268-2.3393 16.237-8.6812 16.237-20.724 0-15.148-8.8648-22.605-30.052-25.277-6.6577-0.83989-6.1344-2.8249 1.5152-5.7468 5.709-2.1808 6.3241-2.6969 6.4247-5.3917 0.0612-1.639 0.85667-4.6701 1.7678-6.7357 2.3062-5.2284 2.0512-11.09-0.88174-20.274-1.3819-4.327-2.5025-10.009-2.4903-12.627 0.0235-5.0474 2.6148-11.944 5.3325-14.193 1.4446-1.1954 1.9881-0.60927 4.6833 5.0508 1.677 3.5217 6.0407 9.8123 9.6972 13.979 9.3405 10.644 11.911 15.941 11.37 23.427-0.58952 8.15-2.9514 11.109-9.9872 12.511l-5.4605 1.0885 5.5558 2.8264c3.0557 1.5545 8.2146 4.8148 11.464 7.2452 3.2497 2.4304 6.4904 4.4188 7.2015 4.4188 0.71118 0 3.7345-1.1012 6.7184-2.4472 3.8609-1.7416 8.7751-2.7714 17.042-3.5715 23.179-2.2432 26.195-3.8942 28.841-15.786 1.0166-4.5693 2.1447-7.4505 2.8381-7.2483 0.63297 0.18458 2.7418 3.4905 4.6864 7.3466 3.2157 6.3768 3.5355 7.7898 3.5355 15.621 0 7.6479-0.3335 9.2123-2.9839 13.997-6.9174 12.488-20.401 18.386-45.6 19.946l-11.208 0.694-3.2086 5.3644c-4.2471 7.1008-11.094 13.823-17.034 16.725-6.2993 3.0775-19.306 3.3194-27.385 0.50934-6.07-2.1112-7.8893-1.376-6.8493 2.7678 0.77397 3.0837 11.058 14.42 13.9 15.321 3.4574 1.0973 3.4048-0.42704-0.14096-4.0854-1.8686-1.9279-3.148-3.7547-2.8432-4.0596 0.30485-0.30485 5.274-0.82398 11.043-1.1536 7.4627-0.42644 13.181-1.4493 19.822-3.5456l9.3337-2.9463 3.5747-7.737c5.0828-11.001 5.5283-11.368 13.817-11.368 9.4674 0 20.612-2.4526 30.1-6.624 4.3501-1.9126 8.4039-3.4775 9.0083-3.4775 4.8826 0-7.8153 14.923-18.296 21.502-5.2375 3.2877-18.078 6.8877-26.75 7.4997-9.5396 0.67322-10.457 1.4049-7.9193 6.3132 2.0927 4.0469 1.4007 6.0865-3.5969 10.602-2.2202 2.0058-3.765 4.0868-3.4328 4.6242 0.33219 0.53751 3.505 0.97729 7.0508 0.97729 10.533 0 9.7473 2.0189-2.7294 7.0148-7.0288 2.8145-8.7185 3.0848-19.157 3.0654-9.3738-0.0175-12.658-0.44825-18.122-2.3772zm11.784-11.271c-2.1664-1.6386-6.6255-2.0136-6.6255-0.55713 0 1.2506 1.9091 1.9353 5.5558 1.9926 2.879 0.0452 2.9324-0.0265 1.0696-1.4355z"/>
    <path transform="scale(.26458)" d="m524.56 385.75-3.3631-3.4698 2.6721-4.5596c3.5288-6.0215 4.1862-11.852 2.1202-18.805-2.2584-7.6004-2.9129-12.122-1.7547-12.122 2.6284 0 27.885 13.689 32.097 17.397 6.9829 6.1466 10.81 15.944 7.3084 18.707-0.69448 0.54806-5.9279 1.2669-11.63 1.5975-7.173 0.41583-11.803 1.2362-15.028 2.6628-6.429 2.8438-8.5316 2.6055-12.422-1.4081z"/>
    <path transform="scale(.26458)" d="m452.1 531.4c-1.1208-1.2501-4.3817-5.7132-7.2465-9.9181-5.621-8.2504-19.892-22.642-27.76-27.994-2.6796-1.8228-4.6909-3.8684-4.4696-4.5457 0.22131-0.67732 4.6153-3.5231 9.7643-6.324 5.9328-3.2272 12.505-7.9649 17.942-12.934 4.719-4.313 9.1088-7.6676 9.7549-7.4546 0.6634 0.21867 1.3087 2.9482 1.4824 6.2702 0.26668 5.101-0.10257 6.5427-2.7779 10.846-1.697 2.7299-3.0855 6.297-3.0855 7.9268 0 8.7888 13.765 9.561 15.671 0.87919 0.53217-2.423 0.0862-3.9474-2.0618-7.0469-3.933-5.6752-4.8159-18.143-1.2849-18.143 0.64596 0 4.8421 3.5592 9.3247 7.9093 5.975 5.7984 10.644 9.2162 17.494 12.806 5.1392 2.6931 9.3439 5.2002 9.3439 5.5712 0 0.95538-2.9414 3.2162-7.0711 5.435-11.964 6.4279-22.407 17.657-28.509 30.656-2.1519 4.5836-4.0388 8.3338-4.193 8.3338s-1.1974-1.0228-2.3182-2.2728z"/>
    <path transform="scale(.26458)" d="m383.08 480.16c-5.0166-0.91595-15.089-4.6656-16.659-6.2019-1.4877-1.4554 0.98226-2.6178 7.2178-3.3969 2.9704-0.37112 5.4006-0.93214 5.4006-1.2467 0-0.31457-1.8183-2.5446-4.0406-4.9555-4.5655-4.953-4.6128-5.1444-2.5121-10.172 0.84067-2.012 1.4089-3.7571 1.2627-3.878-0.14619-0.12093-4.9145-0.98657-10.596-1.9236-14.205-2.3427-22.429-5.3326-29.921-10.878-6.1275-4.5352-14.802-14.389-14.802-16.814 0-1.7584 1.4468-1.4612 9.3993 1.9305 9.6024 4.0953 21.922 6.9858 29.811 6.9946 3.5089 4e-3 7.2632 0.47981 8.3428 1.0576 1.0796 0.5778 3.7378 4.5806 5.9071 8.8952 2.1693 4.3146 4.5517 8.3399 5.2943 8.9453 2.6927 2.1952 15.729 5.4697 26.099 6.5553 5.8336 0.61077 11.035 1.4962 11.56 1.9676 0.5738 0.51605-0.20077 2.0613-1.9467 3.8837-3.4398 3.5903-2.8822 4.808 1.2282 2.6824 5.3778-2.781 13.402-13.117 13.402-17.262 0-1.9865-0.11165-1.9808-10.776 0.55199-17.303 4.1094-28.743-0.46822-39.232-15.697-2.07-3.0056-4.9612-5.9145-6.4248-6.4641-1.4636-0.54969-7.9221-1.4929-14.352-2.096-6.4301-0.60312-14.158-1.8284-17.173-2.7229-21.082-6.2549-30.617-20.844-25.832-39.522 1.6846-6.5756 5.5322-13.586 7.1696-13.063 0.52881 0.16882 1.4882 2.3718 2.132 4.8955 2.9212 11.451 7.3096 14.423 24.394 16.522 15.005 1.843 16.608 2.1601 24.133 4.7728l6.1642 2.1401 4.4424-3.6209c2.4433-1.9915 7.624-5.3629 11.513-7.492l7.0701-3.8711-5.5549-1.036c-5.0548-0.94276-5.727-1.3882-7.4669-4.9477-2.5661-5.2496-2.4965-13.146 0.16128-18.313 1.1404-2.2169 5.1276-7.8945 8.8607-12.617 3.733-4.7225 8.3141-10.973 10.18-13.89 1.8661-2.9168 3.8763-5.3033 4.4672-5.3033 1.4398 0 3.657 5.5143 4.4678 11.112 0.4808 3.3191-0.0384 7.2068-1.9242 14.407-3.016 11.516-3.1076 14.952-0.64991 24.382l1.8163 6.9692 6.3885 2.9c3.6562 1.6597 5.9867 3.2624 5.4491 3.7474-0.51668 0.46609-4.3487 1.3798-8.5156 2.0304-17.676 2.7599-26.284 11.248-26.236 25.871 0.0331 10.109 5.6812 17.024 16.174 19.8 6.6762 1.7665 11.721 0.49717 16.326-4.1075 4.5596-4.5596 4.9692-8.087 1.3585-11.698-3.4622-3.4622-6.8731-3.1901-10.073 0.80353-1.4467 1.8056-3.096 3.8512-3.6652 4.5457-2.9543 3.6051-12.067-0.81949-12.067-5.8591 0-6.082 11.767-13.941 18.876-12.608 16.624 3.1187 27.951 20.025 24.523 36.604-2.8041 13.563-12.461 25.854-25.753 32.776-6.5918 3.4328-7.7775 3.7001-18.656 4.2049-6.3892 0.29651-13.662 0.16562-16.162-0.29086zm23.998-12.906c0.23887-0.72764-0.44222-1.2627-1.6074-1.2627-2.7704 0-5.2176 1.0283-5.2176 2.1924 0 1.4178 6.3377 0.55452 6.8249-0.9297z"/>
    <path transform="scale(.26458)" d="m381.55 480.19c-5.3304-1.155-15.646-5.7456-15.646-6.9629 0-1.2846 2.0158-1.9798 8.0689-2.7828 2.7847-0.36941 5.0631-0.90317 5.0631-1.1862 0-0.28299-1.8183-2.4871-4.0406-4.8981-4.4757-4.8555-4.7726-6.1439-2.4509-10.634 0.87435-1.6908 1.4426-3.1836 1.2627-3.3174-0.17986-0.1338-4.8727-0.97873-10.429-1.8776-13.87-2.244-22.099-5.1658-29.604-10.511-8.6086-6.1309-18.261-18.495-14.439-18.495 0.49983 0 5.1423 1.635 10.317 3.6333 11.206 4.3276 20.477 6.4268 28.49 6.4507 3.2311 0.0101 6.7581 0.49026 7.8377 1.068 1.0796 0.5778 3.7761 4.6567 5.9921 9.0642 2.8461 5.6605 4.9124 8.4704 7.037 9.5691 4.2259 2.1853 18.274 5.308 27.569 6.1282 4.3138 0.38066 8.1136 1.1296 8.4441 1.6643 0.33046 0.53471-0.66573 2.2942-2.2138 3.91-3.3638 3.5111-2.7614 4.7008 1.3133 2.5937 8.0626-4.1694 17.592-20.039 11.13-18.534-19.308 4.4956-23.388 4.5484-32.407 0.41932-4.9244-2.2545-6.9581-4.1941-18.395-17.544-3.0595-3.5713-3.1243-3.5917-15.657-4.9146-15.633-1.65-20.954-2.8446-27.966-6.278-14.95-7.3204-21.477-21.621-16.979-37.204 1.9584-6.7845 5.3101-12.816 6.8389-12.306 0.5641 0.18803 1.8456 2.9919 2.8477 6.2308 3.3785 10.919 8.0907 13.549 28.229 15.753 5.8336 0.63856 14.109 2.3149 18.389 3.7252l7.7822 2.5641 4.1794-3.5774c2.2987-1.9676 7.4335-5.3012 11.411-7.408l7.2313-3.8306-5.3337-0.87361c-6.1025-0.99954-7.6069-2.6352-9.2667-10.075-1.6303-7.3081 0.0658-12.212 7.6344-22.072 3.5732-4.655 8.7753-11.759 11.56-15.787 2.785-4.028 5.5275-7.3236 6.0945-7.3236 1.3426 0 3.7242 5.7568 4.5702 11.047 0.48017 3.0028-0.13722 7.4228-2.2009 15.757-2.687 10.851-2.7838 11.951-1.5321 17.391 0.73492 3.1942 1.5625 7.304 1.8391 9.1329 0.44742 2.9589 1.2221 3.6514 7.0305 6.2851 3.5902 1.6279 6.2652 3.3845 5.9443 3.9037-0.32084 0.51914-2.9693 1.2671-5.8855 1.6621-13.456 1.8226-22.352 6.5696-26.306 14.036-3.0055 5.676-3.1292 17.787-0.23062 22.581 2.7784 4.5946 8.2834 8.1376 14.752 9.4945 4.8816 1.0239 6.0048 0.91892 10.249-0.95829 4.7196-2.0877 8.8487-6.9557 8.8568-10.442 5e-3 -2.2639-4.9074-6.9563-7.2828-6.9563-1.7458 0-4.7892 2.622-8.6632 7.4635-3.1488 3.9353-12.335-0.15611-12.335-5.4939 0-6.1862 11.687-13.956 18.944-12.595 16.06 3.0129 27.533 19.35 24.799 35.312-2.386 13.93-12.456 27.057-26.246 34.214-6.9899 3.6278-7.7014 3.7799-19.698 4.2131-6.8454 0.24716-14.27 0.0543-16.498-0.42863zm24.731-12.138c0.81728-0.51686 1.1907-1.235 0.82984-1.5959-0.91647-0.91648-6.8615 0.50161-6.8615 1.6367 0 1.2031 4.1087 1.1753 6.0317-0.0408z"/>
    <path transform="scale(.26458)" d="m380.93 480.15c-5.5267-1.4114-15.021-5.821-15.021-6.9763 0-1.0991 6.2507-3.1187 9.6806-3.1279 3.6614-0.0101 3.5348-1.2044-0.60307-5.6934-4.4312-4.8073-4.752-6.1422-2.5153-10.467 1.7671-3.4172 1.5935-3.5715-5.047-4.4857-16.506-2.2724-28.175-6.5417-36.479-13.346-5.1914-4.2539-12.514-13.111-12.514-15.137 0-2.0566 1.7311-1.7336 11.147 2.0799 9.6889 3.924 21.663 6.6384 29.283 6.6384 2.8379 0 6.0064 0.45313 7.0413 1.007 1.0348 0.55383 3.846 4.7111 6.247 9.2385 3.4008 6.4125 5.09 8.5364 7.644 9.6113 5.6257 2.3676 14.527 4.3746 24.501 5.5238 5.278 0.60818 10.022 1.5043 10.543 1.9914 0.57549 0.5386 0.0383 1.8521-1.3709 3.3522-3.5032 3.729-2.1604 5.0396 2.1574 2.1056 6.0887-4.1374 13.632-15.276 11.672-17.236-0.26127-0.26127-4.5206 0.4903-9.4652 1.6702-10.816 2.5808-18.294 2.1254-25.56-1.5564-4.4325-2.2461-7.3452-5.0843-17.969-17.51-2.7974-3.2717-3.031-3.3391-16.787-4.8451-7.6726-0.83997-16.649-2.3673-19.949-3.3941-15.391-4.7901-25.121-16.193-25.173-29.5-0.0369-9.4899 5.8117-24.596 8.8063-22.745 0.56349 0.34825 1.5243 2.5728 2.1352 4.9435 2.8509 11.063 7.7128 14.133 26.096 16.477 9.9538 1.2689 20.624 3.6769 26.808 6.0497 0.71703 0.27516 3.8002-1.3809 6.8514-3.68 3.0512-2.2992 7.9342-5.355 10.851-6.7907 5.7642-2.8373 6.6914-4.2098 2.8437-4.2098-6.4338 0-9.7591-3.5156-11.129-11.766-1.1052-6.6542 1.0168-11.34 11.676-25.783 14.699-19.917 13.738-18.887 15.504-16.611 0.81217 1.0468 2.0264 4.3597 2.6983 7.362 1.0404 4.6488 0.95497 6.6146-0.57556 13.249-3.9827 17.264-3.9883 17.343-1.8524 25.99l1.9921 8.0646 6.3112 3.3891c3.4711 1.864 5.9271 3.7705 5.4576 4.2365-0.46944 0.46609-3.9793 1.3454-7.7997 1.954-19.554 3.115-28.773 13.565-26.331 29.847 1.8468 12.315 18.552 20.21 29.044 13.726 7.2963-4.5094 8.29-10.878 2.3089-14.797-3.4154-2.2379-6.1782-1.1616-9.36 3.6463-2.1504 3.2495-3.2067 3.9602-5.8858 3.9602-4.4546 0-8.5883-3.4014-8.5883-7.0669 0-6.3565 10.659-13.869 18.235-12.853 8.9632 1.2022 19.055 8.8428 23.13 17.511 5.1456 10.947 3.0794 24.985-5.3659 36.457-5.3835 7.313-11.196 12.176-19.697 16.48-6.0574 3.0669-7.1594 3.2738-19.193 3.6039-7.0216 0.19259-14.416-0.0712-16.433-0.58621zm24.791-11.731c1.7637-0.67678 1.1959-2.4195-0.78828-2.4195-0.69439 0-2.1449 0.6674-3.2234 1.4831-1.9187 1.4512-1.9138 1.4838 0.22938 1.5152 1.2046 0.0177 2.9066-0.24279 3.7823-0.5788z"/>
    <path transform="scale(.26458)" d="m369.26 387.3c-2.5295-1.1725-8.5747-2.3942-15.094-3.0503-6.4398-0.64812-11.218-1.6086-11.718-2.3553-2.6104-3.9019 3.9132-15.149 11.837-20.409 7.2076-4.7841 26.369-14.049 27.549-13.32 0.56092 0.34666 0.33265 4.1403-0.56875 9.4524-1.2289 7.2423-1.2801 9.8017-0.27842 13.924 2.3514 9.6771 2.4271 13.018 0.33781 14.908-3.0166 2.73-7.3497 3.0351-12.065 0.84935z"/>
    <path transform="scale(.26458)" d="m499.5 480.14c-12.958-2.7386-26.899-13.706-33.339-26.228-3.0694-5.9684-3.2824-7.0481-3.2735-16.596 9e-3 -9.4172 0.23801-10.611 2.9453-15.331 10.038-17.501 35.974-19.679 39.982-3.3574 0.79226 3.2259-2.642 7.4549-6.8157 8.3929-2.2088 0.4964-3.2316 0.0676-5.0508-2.1179-6.6968-8.0452-9.1814-9.0815-12.888-5.3752-2.6266 2.6266-2.6214 8.0547 0.0109 11.401 4.5988 5.8464 13.389 6.921 22.811 2.7885 8.051-3.5314 12.04-13.855 9.5878-24.814-2.3946-10.7-11.482-16.89-28.115-19.15-2.9162-0.39613-5.5647-1.145-5.8855-1.6641-0.32085-0.51914 2.4061-2.2994 6.0598-3.956 5.4616-2.4764 6.6432-3.4369 6.6432-5.4005 0-1.3136 0.68185-4.3209 1.5152-6.6829 2.1263-6.0266 1.9015-10.625-1.0735-21.958-1.7279-6.5826-2.3908-11.152-1.9935-13.742 0.66704-4.3495 4.1461-11.777 5.5165-11.777 0.49126 0 2.3529 2.6138 4.1369 5.8084 1.784 3.1946 5.83 8.9904 8.991 12.879 10.765 13.245 12.84 17.874 11.571 25.811-0.91875 5.7455-3.9135 8.874-9.976 10.422-4.981 1.2715-5.0159 1.3077-2.5254 2.6215 1.389 0.7327 6.7737 4.0704 11.966 7.417l9.4407 6.0848 6.2166-2.2516c3.4191-1.2384 12.744-3.1181 20.723-4.1772 8.0775-1.0722 16.135-2.7223 18.183-3.7234 3.8469-1.881 6.1353-5.4772 8.4383-13.261 0.7147-2.4155 1.754-4.4611 2.3096-4.5457 0.55558-0.0846 2.4875 2.7578 4.2931 6.3164 2.9416 5.7972 3.283 7.3663 3.283 15.086 0 10.39-1.9323 15.134-8.7091 21.381-8.1366 7.5-19.833 11.107-41.014 12.648l-9.8222 0.71467-2.7054 4.6164c-3.7621 6.4195-10.034 12.983-15.423 16.142-6.0121 3.5233-19.939 4.382-28.886 1.781-6.5262-1.8972-8.2281-1.2217-7.2038 2.8593 0.77397 3.0837 11.058 14.42 13.9 15.321 3.1985 1.0152 3.3632-0.20033 0.48981-3.6151-1.4581-1.7328-2.6511-3.4857-2.6511-3.8953 0-0.40959 5.3412-1.2734 11.869-1.9197 6.5281-0.64624 15.279-2.2273 19.445-3.5135l7.5762-2.3386 4.5241-8.7393c5.0768-9.8069 6.5244-10.873 14.759-10.873 7.9494 0 18.859-2.4793 29.125-6.6192 4.8932-1.9731 9.1238-3.3604 9.4012-3.0829 1.894 1.894-13.618 18.089-20.869 21.788-5.4957 2.8037-17.054 5.8563-25.222 6.6611-8.9076 0.87773-9.9579 1.5004-8.3786 4.9667 2.1054 4.6208 1.4299 7.4023-2.952 12.156-4.6606 5.0562-4.4642 5.3342 4.0778 5.7712 3.012 0.1541 5.6467 0.79731 5.8547 1.4293 0.20875 0.63417-3.1508 2.6311-7.4968 4.4561-6.9275 2.9091-9.1512 3.3421-18.482 3.5988-5.8336 0.16049-12.537-0.11617-14.896-0.61479zm6.3694-12.662c-3.2059-2.4248-8.4768-1.6509-5.952 0.87391 0.37039 0.37039 2.3023 0.65899 4.2932 0.64132 3.4017-0.0302 3.5016-0.12144 1.6589-1.5152z"/>
    <path transform="scale(.26458)" d="m528.03 388.24c-1.1112-0.44592-3.0853-1.9575-4.387-3.3591l-2.3667-2.5483 2.5671-4.3807c3.7947-6.4756 4.1923-11.113 1.7984-20.976-1.1346-4.6746-1.8345-8.869-1.5553-9.3208 0.59544-0.96345 18.23 7.7136 27.236 13.401 6.1544 3.8869 10.424 8.7838 12.512 14.348 2.506 6.6812 1.3096 7.5997-11.477 8.8113-5.995 0.56802-12.33 1.6265-14.078 2.3522-4.9308 2.0473-8.0464 2.5555-10.249 1.6717z"/>
    <path transform="scale(.26458)" d="m497.33 479.55c-12.632-3.3969-25.34-13.826-31.244-25.642-2.9694-5.9423-3.206-7.1716-3.1973-16.61 9e-3 -9.4497 0.22855-10.575 3.0146-15.433 8.7973-15.339 29.919-19.43 38.14-7.3876 1.2501 1.8314 2.2728 4.1463 2.2728 5.1443 0 2.5682-4.0528 6.7864-7.2375 7.533-2.1887 0.51308-3.2271 0.02-5.5558-2.6381-4.764-5.4378-6.6935-7.0082-8.6103-7.0082-2.9271 0-5.8704 3.6858-5.8704 7.3514 0 13.854 24.819 15.149 32.293 1.6856 1.9954-3.5945 2.494-5.9279 2.4973-11.687 4e-3 -6.2408-0.39948-7.8494-3.0374-12.122-3.807-6.1661-12.618-10.938-23.166-12.547-3.8891-0.59316-7.4552-1.4598-7.9246-1.9259-0.46944-0.46608 1.9932-2.3725 5.4726-4.2365 5.9083-3.1653 6.4179-3.7227 7.7158-8.4399 2.6838-9.754 2.6483-13.568-0.22955-24.667-1.7374-6.7001-2.5401-11.934-2.209-14.402 0.57587-4.2934 3.7709-11.112 5.4727-11.679 0.60118-0.20039 2.5811 2.2364 4.3998 5.4152s5.2415 8.1549 7.6062 11.058c11.494 14.111 14.2 19.763 13.07 27.298-0.90597 6.0415-4.0298 9.4168-10.154 10.972l-4.9957 1.2685 3.5151 1.7802c1.9333 0.97912 7.2702 4.2854 11.86 7.3472l8.3448 5.567 7.8177-2.5594c4.2997-1.4077 12.136-3.0808 17.414-3.7181 20.63-2.491 25.042-4.6379 27.221-13.246 1.6848-6.6569 2.9573-9.2182 4.1988-8.4509 0.60846 0.37605 2.4244 3.47 4.0355 6.8755 2.4976 5.2795 2.9293 7.4244 2.93 14.558 9.6e-4 10.065-1.3265 13.638-7.5307 20.271-7.7294 8.2633-20.172 12.417-41.54 13.868l-10.18 0.69119-2.9343 4.6658c-4.2552 6.7662-10.273 13.007-15.488 16.064-3.798 2.2258-6.0712 2.7341-13.695 3.0627-6.0184 0.2594-11.088-0.11644-14.839-1.1002-6.5982-1.7302-8.495-1.0658-7.5626 2.6492 0.82914 3.3035 12.732 15.81 15.047 15.81 2.4275 0 2.1858-1.2577-0.77649-4.0406-3.1365-2.9466-3.2411-5.0452-0.25253-5.0683 7.4465-0.0574 21.857-2.319 28.848-4.5275l8.1206-2.5653 4.054-8.3755c4.5437-9.3872 6.3816-10.778 14.241-10.778 7.6938 0 18.987-2.5221 29.249-6.5322 5.1743-2.0219 9.6168-3.4671 9.8724-3.2116 2.2188 2.2188-14.042 18.671-22.084 22.344-6.9744 3.1851-15.793 5.4502-24.317 6.246-7.5507 0.70495-9.6094 2.077-7.9024 5.2666 1.982 3.7034 1.2053 7.0578-2.6129 11.284-2.199 2.434-3.3229 4.4552-2.7779 4.9958 0.5034 0.49934 3.3797 1.0476 6.3917 1.2183s5.6408 0.80982 5.8416 1.4202c0.43374 1.3182-9.425 5.9123-15.864 7.3923-6.46 1.4849-20.758 1.2195-27.168-0.50431zm8.5401-12.071c-2.1664-1.6386-6.6255-2.0136-6.6255-0.55713 0 1.2506 1.9091 1.9353 5.5558 1.9926 2.879 0.0452 2.9324-0.0265 1.0696-1.4355z"/>
    <path transform="scale(.26458)" d="m497.85 480.08c-11.773-2.9377-26.118-14.734-31.76-26.117-2.9558-5.9638-3.2091-7.2672-3.2091-16.515 0-6.8724 0.48244-11.057 1.5291-13.262 6.124-12.905 23.044-20.419 33.806-15.012 3.8401 1.9294 8.1014 7.4941 8.1014 10.58 0 2.5105-5.3285 7.8541-7.8318 7.8541-1.0595 0-4.26-2.3093-7.1123-5.1319-5.6997-5.6401-7.4895-5.9271-10.638-1.7059-1.7203 2.3064-1.9035 3.3773-1.1172 6.532 3.0252 12.138 25.811 10.925 32.211-1.7145 2.0734-4.0948 2.6542-10.619 1.4466-16.25-2.1976-10.247-10.743-16.409-26.584-19.167-3.6564-0.63673-6.8904-1.5499-7.1866-2.0292s2.1706-2.2392 5.4818-3.9107c5.7776-2.9165 6.0895-3.2745 7.731-8.8728 2.8306-9.6536 2.8254-12.305-0.0466-23.978-1.6679-6.7793-2.5274-12.543-2.2163-14.862 0.59324-4.4229 3.7237-11.169 5.427-11.694 0.64952-0.20046 2.8323 2.4532 4.8506 5.8969 2.0183 3.4438 6.286 9.4924 9.4837 13.441 9.2954 11.479 10.715 14.323 10.733 21.495 0.0197 7.9037-2.2426 11.329-8.8919 13.464-5.1339 1.6484-5.8262 2.5463-2.7226 3.5313 1.1038 0.35034 6.166 3.368 11.249 6.7058l9.2423 6.0688 5.6708-2.0164c7.2051-2.562 8.5576-2.8415 22.762-4.7036 13.117-1.7195 19.239-3.7326 21.071-6.9294 0.67828-1.1832 2.1424-4.8788 3.2535-8.2123 1.1112-3.3335 2.4749-6.0609 3.0305-6.0609 0.55558 0 2.4747 2.7274 4.2647 6.0609 2.9738 5.538 3.2551 6.8453 3.2608 15.152 7e-3 10.841-1.6273 15.128-8.165 21.414-7.9737 7.6674-20.755 11.732-41.079 13.064l-10.095 0.66159-2.207 3.9268c-3.867 6.8803-12.711 15.547-18.334 17.966-4.5915 1.9752-6.3968 2.1753-15.415 1.7087-5.6182-0.29068-11.866-0.82829-13.884-1.1947-4.5978-0.83486-5.5203 0.482-3.3193 4.7382 2.2011 4.2564 11.959 13.982 14.029 13.982 1.2543 0 1.3946-0.41486 0.6261-1.8508-0.54479-1.018-1.6972-2.4373-2.5609-3.1542-3.3271-2.7612-1.7708-3.8973 6.2583-4.5682 9.5617-0.79901 16.988-2.1828 25.083-4.6743l6.1422-1.8904 4.2874-8.6523c2.7532-5.5563 5.0736-8.9422 6.4847-9.4625 1.2085-0.44559 6.0611-1.1056 10.784-1.4666 9.8755-0.75495 15.601-2.1448 27.094-6.5768 4.508-1.7385 8.4384-3.1609 8.7341-3.1609 3.5416 0-9.741 15.359-17.645 20.403-5.939 3.7903-18.489 7.7077-27.322 8.5287-8.4876 0.78883-10.815 2.1021-9.1709 5.1744 2.0402 3.8121 1.2962 7.1292-2.5551 11.392-2.199 2.434-3.3229 4.4552-2.7779 4.9958 0.5034 0.49934 3.3797 1.0476 6.3917 1.2183s5.6411 0.8109 5.8424 1.4226c0.20129 0.61173-2.945 2.6187-6.9917 4.46-6.8276 3.1066-8.2308 3.3689-19.479 3.6424-6.667 0.16208-13.887-0.14565-16.044-0.68385zm8.4674-11.986c0-1.1351-5.945-2.5532-6.8615-1.6367-0.36087 0.36087 0.0126 1.079 0.82985 1.5959 1.923 1.2161 6.0317 1.2439 6.0317 0.0408z"/>
    <path transform="scale(.26458)" d="m497.85 480.08c-11.583-2.8903-25.684-14.383-31.709-25.845-3.0608-5.8228-3.2603-6.8385-3.2603-16.601 0-8.4481 0.39186-11.208 2.0889-14.714 5.8394-12.063 24.349-19.405 34.033-13.501 3.7402 2.2804 7.305 7.5344 7.3106 10.775 4e-3 2.5299-5.3307 7.4134-8.099 7.4134-1.0378 0-4.1242-2.2728-6.8586-5.0508-2.7344-2.7779-5.5077-5.0508-6.1628-5.0508-1.9704 0-6.15 4.8084-6.15 7.0753 0 14.839 27.625 14.571 33.268-0.32255 1.3283-3.5058 1.4123-14.832 0.13495-18.192-2.8602-7.523-11.391-12.986-24.062-15.411-11.033-2.111-11.432-2.734-4.0501-6.3251 6.6358-3.2279 6.6954-3.3067 8.9538-11.836l2.1241-8.0221-2.8222-12.938c-2.5317-11.606-2.6923-13.426-1.5607-17.678 1.494-5.6132 3.8633-9.5582 5.4273-9.0369 0.61686 0.20562 2.8613 3.2351 4.9876 6.7322 2.1263 3.4971 6.6662 9.8347 10.089 14.084 8.0267 9.9651 10.314 15.063 9.6875 21.588-0.62765 6.532-3.312 10.017-9.1625 11.896-5.1339 1.6484-5.8262 2.5463-2.7226 3.5313 1.1038 0.35034 6.1398 3.3508 11.191 6.6676l9.1841 6.0306 7.2442-2.4638c3.9843-1.3551 11.335-2.9731 16.336-3.5956 24.098-3.0003 25.03-3.5476 29.952-17.596 0.7496-2.1395 1.8175-3.9578 2.3731-4.0406 0.55558-0.0828 2.4747 2.5768 4.2647 5.9103 2.9738 5.538 3.2551 6.8453 3.2608 15.152 7e-3 10.616-1.5966 15.043-7.645 21.099-7.8038 7.8142-20.87 12.075-40.918 13.344l-10.767 0.68128-2.3258 4.1563c-3.6308 6.4886-12.04 14.818-17.59 17.423-4.0764 1.9134-6.741 2.3727-13.813 2.3806-4.819 5e-3 -11.08-0.52518-13.913-1.1791-6.5161-1.5041-8.0091-0.42051-5.6655 4.1116 1.8073 3.4949 12.158 14.25 13.715 14.25 1.685 0 1.0887-2.6264-1.0321-4.5457-3.6001-3.258-2.5007-4.2967 5.3033-5.0107 10.063-0.92067 16.879-2.167 24.873-4.5474l6.7922-2.0228 3.4868-7.2121c5.0476-10.44 6.7769-12.009 13.288-12.052 8.42-0.0555 19.659-2.4381 30.24-6.4107 5.3549-2.0106 10.014-3.6555 10.354-3.6555 2.2166 0-0.43509 4.1547-7.1124 11.144-9.5195 9.964-17.639 14.305-31.161 16.661-15.059 2.6236-16.195 2.9513-15.802 4.5591 1.6751 6.8572 1.3636 8.611-2.3105 13.009-2.0197 2.4174-3.3947 4.6729-3.0555 5.0121 0.3392 0.3392 3.1594 0.84656 6.2671 1.1275 3.1077 0.2809 5.8132 1.0055 6.0122 1.6102 0.19901 0.60469-2.9472 2.6294-6.9915 4.4994-6.8927 3.187-8.1127 3.416-19.475 3.6552-6.667 0.14036-13.887-0.18514-16.044-0.72334zm7.0116-12.603c-2.182-1.6504-5.6153-1.991-5.6153-0.55713 0 1.194 1.8725 1.9327 5.0508 1.9926 2.4358 0.046 2.4558-5e-3 0.56454-1.4355z"/>
    <path transform="scale(.26458)" d="m495.58 479.34c-12.685-4.5066-24.003-14.248-29.726-25.584-2.7012-5.351-2.9712-6.8092-2.9712-16.049 0-6.3374 0.52278-11.414 1.3889-13.487 5.3211-12.735 24.627-20.961 34.733-14.799 3.7402 2.2804 7.305 7.5344 7.3106 10.775 4e-3 2.5299-5.3307 7.4134-8.099 7.4134-1.0378 0-4.1242-2.2728-6.8586-5.0508-2.7344-2.7779-5.5077-5.0508-6.1628-5.0508-1.9301 0-6.15 4.7878-6.15 6.9776 0 12.528 21.497 15.183 30.7 3.792 2.7928-3.4568 3.1715-4.7281 3.4887-11.714 0.28765-6.3342-0.0317-8.592-1.666-11.78-3.8409-7.4915-10.237-11.394-22.977-14.02-4.417-0.91038-8.443-2.0643-8.9468-2.5642-0.54532-0.54124 0.39916-1.6418 2.3346-2.7205 8.7578-4.881 8.9704-5.099 10.815-11.085 2.3023-7.4723 2.1684-13.858-0.5082-24.23-1.1708-4.5372-2.1288-10.009-2.1288-12.16 0-4.5052 3.8751-12.925 5.9486-12.925 0.77157 0 3.0617 2.7274 5.0892 6.0609 2.0275 3.3335 6.5804 9.6975 10.118 14.142 7.5113 9.4382 10.107 14.612 10.136 20.203 0.0385 7.5479-3.3238 11.829-11.562 14.722l-2.9992 1.0533 5.0195 2.7531c2.7608 1.5142 7.8708 4.6934 11.356 7.065l6.3362 4.312 7.3008-2.5145c4.0155-1.383 12.677-3.2172 19.247-4.0762 20.266-2.6493 22.18-3.7177 26.128-14.585 1.2824-3.5293 2.7478-6.4828 3.2564-6.5635 0.50861-0.0807 2.3269 2.1262 4.0406 4.9041 2.7905 4.5233 3.1528 6.0366 3.4692 14.49 0.42977 11.482-1.1363 16.349-7.2336 22.48-7.9919 8.036-20.914 12.352-40.906 13.664l-10.41 0.683-3.1159 4.6458c-5.0484 7.5272-12.069 14.305-17.48 16.874-4.1214 1.9574-6.6878 2.4006-13.947 2.4087-4.8931 5e-3 -10.908-0.49655-13.366-1.1155-6.1131-1.5393-7.8237-0.78284-6.4607 2.8571 1.0387 2.7738 12.769 15.441 14.299 15.441 1.5117 0 0.77023-2.7323-1.2335-4.5457-3.5621-3.2236-2.5017-4.3383 4.7982-5.0441 10.17-0.98333 18.174-2.4407 25.506-4.6444l6.566-1.9734 4.3919-8.581c2.4156-4.7196 5.143-8.9661 6.0609-9.4368s5.5328-1.1634 10.255-1.5392c10.051-0.80006 17.591-2.6146 27.93-6.7216 4.1128-1.6338 7.9206-2.9705 8.4617-2.9705 4.7274 0-10.942 17.192-20.135 22.092-5.6851 3.0301-18.185 6.4008-28.695 7.7374l-4.862 0.61839 0.65402 5.2346c0.61427 4.9164 0.4371 5.5087-2.9151 9.7449-1.963 2.4807-3.3826 4.6968-3.1547 4.9248 0.22796 0.22797 3.0091 0.69721 6.1803 1.0428 3.1712 0.34556 5.9296 1.123 6.1297 1.7277s-2.9451 2.6442-6.9895 4.5323c-6.9609 3.2497-8.0272 3.448-19.98 3.7158-10.173 0.22796-13.634-0.075-17.811-1.5588zm9.284-11.862c-1.0785-0.81571-2.8967-1.4686-4.0406-1.451-2.0458 0.0316-2.0478 0.0563-0.11894 1.5152 1.0785 0.81571 2.8967 1.4687 4.0406 1.451 2.0459-0.0316 2.0478-0.0563 0.11894-1.5152z"/>
   </g>
  </g>
 </g>
</svg>
