<?xml version="1.0" encoding="UTF-8"?>
<!-- Created with Inkscape (http://www.inkscape.org/) -->
<svg width="74.271mm" height="87.384mm" version="1.1" viewBox="0 0 74.271 87.384" xmlns="http://www.w3.org/2000/svg" xmlns:cc="http://creativecommons.org/ns#" xmlns:dc="http://purl.org/dc/elements/1.1/" xmlns:rdf="http://www.w3.org/1999/02/22-rdf-syntax-ns#">
 <metadata>
  <rdf:RDF>
   <cc:Work rdf:about="">
    <dc:format>image/svg+xml</dc:format>
    <dc:type rdf:resource="http://purl.org/dc/dcmitype/StillImage"/>
    <dc:title/>
   </cc:Work>
  </rdf:RDF>
 </metadata>
 <g transform="translate(-69.454 -96.07)" fill="#fc0" stroke-width=".26727">
  <path d="m85.661 168.71c-2.0077-0.78648-2.5888-1.3915-1.6036-1.6698 0.25725-0.0727 0.97888-0.21162 1.6036-0.30878 0.62474-0.0972 1.1359-0.23716 1.1359-0.31112 0-0.074-0.42943-0.63468-0.9543-1.246-0.96297-1.1217-1.0173-1.4438-0.51267-3.0372 0.151-0.47676 0.06649-0.61423-0.44274-0.72021-0.34615-0.072-1.8882-0.37279-3.4269-0.66833-3.9704-0.76261-6.1288-1.8872-8.5043-4.4308-1.0236-1.0961-1.9283-2.2499-2.0105-2.5639-0.18304-0.69993-0.14012-0.69149 4.1435 0.81476 2.3681 0.8327 3.696 1.1379 5.479 1.2594 1.2944 0.0881 2.5989 0.25064 2.8989 0.36108 0.31048 0.11429 1.0578 1.1527 1.7347 2.4103 1.0153 1.8864 1.3501 2.2806 2.2896 2.6962 1.3384 0.59204 4.124 1.1924 6.6906 1.442 2.5017 0.24326 2.7425 0.40323 2.0096 1.335-0.78595 0.99918-0.72064 1.2822 0.18753 0.81256 1.1946-0.61777 2.9801-2.7876 3.3707-4.0964 0.22342-0.74858-0.19912-0.77641-2.5691-0.16924-2.2485 0.57605-5.0284 0.3974-6.6362-0.42647-0.65836-0.33738-1.8009-1.2752-2.5391-2.0839-3.3324-3.6515-3.0595-3.4504-4.9517-3.6472-7.0887-0.73705-9.4673-1.5435-11.637-3.9456-1.6064-1.7781-2.0736-3.1434-1.9408-5.6728 0.08975-1.71 0.27964-2.4983 0.90723-3.7661 0.43655-0.8819 0.95432-1.6035 1.1506-1.6035 0.20191 0 0.56714 0.67954 0.84106 1.5648 0.54633 1.7657 1.319 2.7401 2.6084 3.2892 0.48454 0.20636 2.5431 0.60641 4.5747 0.88899 2.0315 0.28258 4.4427 0.77301 5.3582 1.0898l1.6646 0.57606 1.1107-0.83399c0.61088-0.45869 1.9482-1.3078 2.9719-1.8869 1.9168-1.0844 1.9199-1.1654 0.05626-1.4759-0.85664-0.14273-1.0884-0.32796-1.4284-1.1416-1.1139-2.666-0.72882-4.1782 1.9674-7.7248 1.1001-1.4471 2.4753-3.3226 3.0559-4.1679 0.58061-0.84524 1.1776-1.5368 1.3266-1.5368 0.14902 0 0.44191 0.40918 0.65087 0.90929 0.76878 1.8399 0.76456 2.9532-0.02397 6.3357-0.75183 3.225-0.75279 3.2411-0.29923 5.011 0.25026 0.97661 0.45402 1.98 0.45278 2.2297-0.0013 0.29659 0.60024 0.7416 1.735 1.2832 0.95549 0.45601 1.7373 0.93779 1.7373 1.0706s-0.45102 0.31434-1.0023 0.40336c-5.0061 0.80843-7.1902 2.1493-7.9917 4.9063-1.0675 3.6721 0.594 6.5389 4.2319 7.302 1.3664 0.28662 1.5754 0.26123 2.7855-0.33854 1.6871-0.83612 2.4095-2.0916 1.8387-3.1954-0.75589-1.4617-1.8545-1.4139-3.2522 0.14155-1.3111 1.4591-1.9592 1.5197-3.1815 0.29739-0.84124-0.84124-0.88422-0.96583-0.60725-1.7603 0.32735-0.93904 1.9055-2.2184 3.307-2.681 0.6603-0.21791 1.2012-0.21578 2.0502 8e-3 4.7582 1.2546 7.3137 5.8612 5.8765 10.593-1.0254 3.3758-3.5235 6.2024-7.0338 7.9585l-1.9039 0.95248-3.639-0.0102c-3.4074-9e-3 -3.7709-0.0618-5.7104-0.82154zm8.4858-2.6428c0.21092-0.34128-0.67463-0.34128-1.2027 0-0.31357 0.20264-0.24423 0.25997 0.31831 0.26318 0.39557 2e-3 0.79355-0.11618 0.8844-0.26318z"/>
  <path d="m84.391 144.79c-0.51449-0.22545-2.0776-0.53568-3.4736-0.6894-3.1386-0.3456-3.7426-0.55991-3.7426-1.3278 0-1.0481 1.0774-2.8553 2.4241-4.066 1.7168-1.5435 8.0292-4.721 8.2975-4.1767 0.03622 0.0735-0.09438 1.2516-0.29022 2.6179-0.31606 2.205-0.30647 2.6627 0.0853 4.0718 0.61028 2.1951 0.56444 2.7964-0.26283 3.4471-0.82861 0.65178-1.7462 0.68897-3.0376 0.1231z"/>
  <path d="m106.39 147.56c-1.2704-1.3947-1.2758-1.4395-1.4163-11.617-0.11214-8.1224-0.19812-9.7438-0.53454-10.08-0.27217-0.27184-0.52964-0.32084-0.80181-0.15263-0.33037 0.20418-0.43159 1.3897-0.57533 6.7389-0.0959 3.5701-0.18614 7.5592-0.20046 8.8647l-0.026 2.3736-0.9464-0.15358c-0.52052-0.0845-1.3624-0.41069-1.8709-0.72494l-0.92449-0.57136v-15.874l-1.8336-0.47236c-3.9912-1.0282-3.9943-2.9785-0.0097-6.099l1.7648-1.3821 0.1468-6.5333c0.08686-3.8658 0.25775-6.6442 0.41855-6.805 0.4395-0.43951 2.527-0.2998 2.8875 0.19325 0.175 0.23932 0.38848 1.8317 0.4769 3.5573 0.27464 5.3596 0.53498 7.6194 0.89122 7.7359 0.68073 0.22264 0.87563-1.5206 1.1374-10.174 0.14759-4.879 0.33908-9.2074 0.42553-9.6185 0.1523-0.72443 0.20408-0.74515 1.67-0.66817l1.5128 0.07944 0.16998 3.4745c0.0935 1.911 0.19423 5.5191 0.22387 8.0181 0.0606 5.1123 0.26083 7.1249 0.72395 7.278 0.62253 0.20573 0.88393-1.0146 1.119-5.2239 0.13126-2.3506 0.3202-4.4058 0.41988-4.5671 0.2303-0.37264 3.0006-0.38623 3.2295-0.0159 0.0943 0.15257 0.33101 2.3439 0.52602 4.8696 0.19503 2.5257 0.45572 4.6298 0.57933 4.6758 2.2689 0.84389 3.2008 1.3677 3.5536 1.9972 0.37347 0.66646 0.36502 0.80821-0.0996 1.6709-0.27921 0.51847-1.325 1.6235-2.3241 2.4557l-1.8164 1.513-0.0789 9.8048c-0.0663 8.2394-0.14296 9.8822-0.47986 10.29-0.56098 0.6787-2.6688 1.578-2.9768 1.2701-0.13601-0.13601-0.34962-4.487-0.47468-9.6688-0.23581-9.7702-0.33661-10.514-1.2945-9.5573-0.42386 0.42357-0.47317 1.395-0.54739 10.785l-0.0816 10.319-0.84959 1.2978c-0.46727 0.71376-0.92075 1.2978-1.0077 1.2978-0.087 0-0.40462-0.27061-0.70587-0.60136zm-7.5569-23.604c0.29172-0.76729 0.34624-2.5222 0.09842-3.168-0.24484-0.63804-0.77625-0.51224-1.6881 0.3996-0.56396 0.56396-0.82237 1.0822-0.82237 1.6494 0 1.6584 1.876 2.5287 2.412 1.119zm5.8799-0.26727c0.48546-1.2768 0.26207-6.5307-0.27768-6.5307-0.11234 0-0.48819 0.22993-0.83522 0.51097-0.58772 0.47595-0.62642 0.67286-0.56475 2.8731 0.0881 3.1432 0.24938 3.8322 0.89708 3.8322 0.31218 0 0.62407-0.27393 0.78057-0.68557zm5.9387-2.1195c0.12143-0.58731 0.18647-2.0894 0.14452-3.3379-0.0672-1.999-0.13798-2.2818-0.59314-2.3689-0.87782-0.16794-1.2204 0.68834-1.2204 3.0505 0 3.0626 0.19815 3.906 0.89392 3.8048 0.40813-0.0594 0.61251-0.36225 0.77508-1.1485zm6.0045-2.3398c0.97758-1.0681 1.0066-1.7177 0.11649-2.6078-0.43993-0.43993-1.0497-0.79988-1.355-0.79988-0.46379 0-0.55462 0.16486-0.55216 1.0023 8e-3 2.8659 0.61877 3.6858 1.7906 2.4054z"/>
  <path d="m117.18 168.9c-0.85774-0.35819-2.0365-0.98178-2.6194-1.3858-1.5826-1.0967-3.8098-3.6192-4.6056-5.2162-0.62537-1.255-0.70351-1.7231-0.70351-4.2149 0-2.2876 0.10165-3.0131 0.5527-3.9448 1.0632-2.1962 3.6079-3.834 6.2548-4.0256 1.9044-0.13783 3.1356 0.40221 4.0837 1.7911 0.79177 1.16 0.75959 2.0172-0.10585 2.8192-1.0722 0.99364-1.9289 0.85163-3.3018-0.5473-1.3585-1.3842-1.8796-1.4821-2.6533-0.4985-0.66398 0.84412-0.68555 1.206-0.13528 2.2701 1.1878 2.297 5.8749 2.0242 7.7641-0.45186 0.71224-0.93352 0.77078-1.1858 0.77078-3.3217 0-2.0168-0.0838-2.4338-0.65726-3.2717-1.1481-1.6774-3.1921-2.7098-6.7595-3.4143-0.84524-0.16692-1.5368-0.41321-1.5368-0.54731s0.57885-0.53714 1.2863-0.89565c1.5471-0.78395 1.7204-0.9873 2.2839-2.6788 0.57973-1.7402 0.54774-3.8449-0.0958-6.3-0.28895-1.1025-0.52743-2.5503-0.52995-3.2174-5e-3 -1.2982 0.96396-3.598 1.5158-3.598 0.17473 0 0.78606 0.72467 1.3585 1.6104 0.57246 0.8857 1.9062 2.7499 2.9638 4.1427 2.0684 2.7238 2.5874 4.0108 2.3414 5.8056-0.2264 1.6518-0.81563 2.3795-2.3354 2.8843l-1.325 0.44009 1.4131 0.85707c0.77721 0.47139 2.0912 1.3102 2.92 1.8641l1.5069 1.007 2.2349-0.67877c1.2292-0.37332 3.6688-0.86952 5.4213-1.1026 4.7723-0.63487 5.3101-0.95939 6.3548-3.8343 0.33828-0.93089 0.73532-1.71 0.88231-1.7313 0.147-0.0213 0.65816 0.73155 1.1359 1.6731 0.78107 1.5393 0.86863 1.9449 0.86863 4.0234 0 1.96-0.10684 2.5259-0.70251 3.7212-0.8417 1.6891-2.6799 3.2332-4.7879 4.0219-1.6736 0.62616-5.5158 1.3536-7.1731 1.358-2.3989 6e-3 -3.0499 0.25629-3.7413 1.4361-0.92867 1.5846-3.3194 3.8997-4.6356 4.4889-1.561 0.69873-4.0876 0.85667-6.5424 0.40895-3.0245-0.55161-3.181-0.12657-0.93626 2.5424 1.1021 1.3103 2.268 2.2266 2.5168 1.9778 0.079-0.079-0.18546-0.53488-0.58776-1.013-0.90999-1.0815-0.89904-1.0869 3.3376-1.6485 1.6905-0.2241 3.8554-0.65334 4.8108-0.95388l1.7372-0.54642 1.1696-2.298c1.2733-2.5017 1.6532-2.7936 3.6351-2.7936 1.8278 0 4.851-0.67177 7.7313-1.718 1.4559-0.52881 2.7089-0.89964 2.7845-0.82407 0.29353 0.29353-0.69843 1.6838-2.4233 3.3963-2.5835 2.565-5.1046 3.6384-10.358 4.4099l-1.47 0.21588 0.0863 1.4064c0.0758 1.2353-0.0137 1.5326-0.73499 2.4434-0.45171 0.57033-0.82129 1.17-0.82129 1.3326 0 0.16279 0.45038 0.29727 1.0023 0.29928 1.2611 5e-3 2.205 0.25119 2.205 0.5761 0 0.13758-0.81183 0.63471-1.8041 1.1047-1.728 0.81855-1.9619 0.85756-5.5458 0.92508-3.4492 0.065-3.8637 0.0196-5.3013-0.58076zm3.2968-2.8306c-0.2205-0.1425-0.70158-0.25908-1.0691-0.25908-0.52891 0-0.58461 0.054-0.26727 0.25908 0.2205 0.1425 0.70159 0.25908 1.0691 0.25908 0.52891 0 0.58462-0.054 0.26727-0.25908z"/>
  <path d="m125.59 144.33-0.86418-0.8916 0.6972-1.3438c0.83137-1.6024 0.90723-3.3822 0.2522-5.9164-0.24076-0.93148-0.36928-1.7621-0.2856-1.8457 0.42547-0.42547 6.7333 2.9078 8.5818 4.535 1.2023 1.0583 2.2668 2.8928 2.2668 3.9062 0 0.77076-0.70038 1.0218-3.5012 1.2548-1.2348 0.10272-2.9024 0.41323-3.7058 0.69004-2.0034 0.69025-2.4441 0.64053-3.4413-0.38834z"/>
  <path d="m106.4 182.85c-0.29982-0.33377-1.1349-1.4475-1.8558-2.4749-1.5633-2.2282-4.9861-5.7393-7.1311-7.315-0.84923-0.62389-1.4763-1.2439-1.3935-1.3779 0.08279-0.13397 1.2638-0.89875 2.6244-1.6995 1.3606-0.80078 3.0702-1.9817 3.7989-2.6243 2.0352-1.7945 3.0822-2.6213 3.3198-2.6213 0.11903 0 0.29854 0.54764 0.39891 1.217 0.15433 1.0292 0.0559 1.4875-0.63783 2.97-1.3322 2.8469-0.9497 4.0984 1.2527 4.0984 0.8651 0 1.2119-0.14809 1.6494-0.70422 0.71077-0.90361 0.69789-1.1676-0.13734-2.8159-0.3802-0.75029-0.75758-2.0066-0.83861-2.7917-0.22601-2.1898 0.25527-2.1361 3.0715 0.34307 1.3078 1.1513 3.4203 2.6757 4.6945 3.3875 1.2741 0.71179 2.3166 1.3376 2.3166 1.3906 0 0.0531-1.2071 0.89241-2.6824 1.8652-3.1383 2.0693-4.9965 4.1422-6.7509 7.531l-1.1539 2.2289z"/>
 </g>
</svg>
